<?xml version="1.0" encoding="utf-8"?>
<!-- Generator: Adobe Illustrator 17.1.0, SVG Export Plug-In . SVG Version: 6.00 Build 0)  -->
<!DOCTYPE svg PUBLIC "-//W3C//DTD SVG 1.1//EN" "http://www.w3.org/Graphics/SVG/1.1/DTD/svg11.dtd">
<svg version="1.1" id="Layer_1" xmlns="http://www.w3.org/2000/svg" xmlns:xlink="http://www.w3.org/1999/xlink" x="0px" y="0px"
	 viewBox="0 0 400 400" enable-background="new 0 0 400 400" xml:space="preserve">
<radialGradient id="SVGID_1_" cx="200" cy="200" r="200" gradientUnits="userSpaceOnUse">
	<stop  offset="0.3789" style="stop-color:#00627F;stop-opacity:0"/>
	<stop  offset="0.5744" style="stop-color:#03687F;stop-opacity:0"/>
	<stop  offset="0.6331" style="stop-color:#02707E;stop-opacity:0.1711"/>
	<stop  offset="0.7457" style="stop-color:#01867A;stop-opacity:0.4994"/>
	<stop  offset="0.7977" style="stop-color:#039477;stop-opacity:0.6512"/>
	<stop  offset="0.8226" style="stop-color:#5EA16C;stop-opacity:0.688"/>
	<stop  offset="0.8546" style="stop-color:#91B35C;stop-opacity:0.7353"/>
	<stop  offset="0.8864" style="stop-color:#B7C44B;stop-opacity:0.7822"/>
	<stop  offset="0.9173" style="stop-color:#D5D237;stop-opacity:0.8278"/>
	<stop  offset="0.947" style="stop-color:#EADD20;stop-opacity:0.8718"/>
	<stop  offset="0.9752" style="stop-color:#F6E404;stop-opacity:0.9133"/>
	<stop  offset="1" style="stop-color:#FBE600;stop-opacity:0.95"/>
</radialGradient>
<circle opacity="0.75" fill="url(#SVGID_1_)" cx="200" cy="200" r="200"/>
<g>
	<g>
		<path fill="#30469D" d="M91.007,162.637c-0.228,0.633-0.597,1.46-1.109,2.482c-0.515,1.024-1.033,2.086-1.556,3.188
			c-0.254,0.871-0.584,1.679-0.989,2.425c-0.407,0.748-0.779,1.554-1.116,2.422c-0.189,0.633-0.378,1.266-0.567,1.898
			c-0.008,0.079-0.016,0.159-0.024,0.238c-0.045,0.039-0.091,0.078-0.137,0.116c-0.124,0.396-0.268,0.79-0.433,1.184
			c-0.165,0.396-0.352,0.789-0.559,1.181c0.109,0.562,0.345,0.906,0.707,1.035c0.362,0.129,0.875,0.203,1.542,0.22
			c0.182-0.154,0.48-0.226,0.898-0.215c0.158,0.084,0.317,0.168,0.476,0.251c-0.004,0.04-0.008,0.079-0.012,0.119
			c0.166,0.004,0.32,0.128,0.464,0.371c0.035,0.479-0.017,0.997-0.154,1.55c-0.008,0.081-0.055,0.119-0.137,0.116
			c-0.012,0.119-0.024,0.238-0.035,0.357c-0.382,0.468-0.686,0.58-0.912,0.335c-0.926,0.056-1.852,0.111-2.778,0.166
			c-0.601,0.142-1.263,0.265-1.984,0.365c-0.723,0.1-1.409,0.06-2.06-0.116c-2.706,0.242-5.385,0.426-8.038,0.547
			c-2.653,0.12-5-0.09-7.029-0.632c-0.379-0.331-0.43-0.612-0.151-0.842c-0.125-0.004-0.25-0.008-0.375-0.012
			c-0.342,0.07-0.566,0.003-0.667-0.2c-0.101-0.201-0.049-0.459,0.156-0.773c0.178-0.073,0.332-0.148,0.466-0.224
			c0.135-0.074,0.286-0.111,0.452-0.105c0.005-0.04,0.01-0.08,0.014-0.12c0.038-0.316,0.191-0.551,0.46-0.703
			c0.166,0.005,0.252-0.011,0.257-0.052c0.005-0.039,0.048-0.058,0.132-0.056c0.684-0.138,0.911,0.069,0.679,0.619
			c0.175-0.073,0.372-0.147,0.59-0.221c0.216-0.072,0.502-0.183,0.854-0.332c0.037-0.317,0.272-0.549,0.708-0.697
			c0.425-0.066,0.779-0.234,1.061-0.506c0.282-0.27,0.565-0.56,0.852-0.872c0.184-0.153,0.392-0.147,0.623,0.019
			c0.184-0.154,0.369-0.308,0.553-0.462c0.129-0.036,0.258-0.072,0.388-0.108c0.348-0.866,0.61-1.717,0.788-2.548
			c0.176-0.832,0.512-1.6,1.007-2.303c0.923-1.568,1.907-3.153,2.952-4.759c1.044-1.603,2.057-3.15,3.041-4.638
			c0.008-0.079,0.033-0.119,0.075-0.118c0.04,0.001,0.066-0.037,0.074-0.117c0.013-0.119,0.026-0.239,0.039-0.358
			c0.008-0.078,0.034-0.137,0.081-0.177c0.044-0.038,0.072-0.097,0.081-0.177c0.043-0.396,0.109-0.634,0.2-0.712
			c0.241-0.711,0.52-1.4,0.838-2.069c0.318-0.668,0.705-1.236,1.165-1.702c-0.065-0.161-0.129-0.323-0.194-0.484
			c0.011-0.876,0.319-1.666,0.925-2.366c0.604-0.701,1.265-1.359,1.982-1.979c0.746-1.295,1.49-2.591,2.233-3.887
			c-0.074-0.08-0.057-0.24,0.049-0.477c0.372-0.468,0.692-0.818,0.959-1.051c0.295-0.51,0.59-1.021,0.885-1.531
			c-0.085,0.038-0.17,0.075-0.255,0.113c0.452-0.865,0.904-1.73,1.354-2.595c0.129-0.076,0.258-0.153,0.387-0.229
			c0.241-0.392,0.482-0.785,0.723-1.177c-0.044,0.039-0.088,0.077-0.132,0.116c-0.265,0.232-0.511,0.267-0.737,0.1
			c-0.226-0.165-0.243-0.404-0.049-0.719c1.092-2.043,2.088-4.19,2.992-6.439c0.901-2.249,1.931-4.394,3.083-6.439
			c0.519-1.261,1.105-2.403,1.759-3.424c0.188-0.313,0.394-0.607,0.619-0.882c0.223-0.273,0.425-0.527,0.607-0.762
			c0.188-0.314,0.376-0.628,0.564-0.943c0.007-0.079,0.015-0.159,0.022-0.238c0.319-0.869,0.733-1.716,1.245-2.541
			c0.509-0.824,1.001-1.668,1.476-2.535c-0.315-0.007-0.548-0.052-0.697-0.136c-0.38-0.168-0.511-0.45-0.395-0.847
			c0.201-0.473,0.887-1.094,2.059-1.864c0.022-0.239,0.075-0.396,0.161-0.474c0.614-1.579,1.346-2.976,2.199-4.193
			c0.851-1.215,1.646-2.491,2.387-3.831c-0.474,0.07-0.865,0.061-1.168-0.027c-0.305-0.085-0.397-0.368-0.276-0.843
			c0.565-1.102,1.537-1.997,2.918-2.683c0.284-1.506,0.703-2.773,1.255-3.797c0.003-0.04,0.007-0.079,0.01-0.119
			c0.027-0.317,0.16-0.514,0.398-0.589c0.239-0.073,0.423,0.009,0.559,0.251c0.076,0.002,0.118-0.016,0.121-0.057
			c0.003-0.039,0.043-0.059,0.121-0.057c0.077,0.002,0.154,0.003,0.232,0.005c0.164-0.116,0.329-0.232,0.493-0.348
			c1.016-0.136,1.987-0.175,2.911-0.117c0.923,0.061,1.842,0.178,2.756,0.355c0.843,0.098,1.609,0.194,2.299,0.285
			c0.689,0.094,1.339,0.187,1.952,0.277c0.296,0.167,0.455,0.367,0.478,0.607c0.021,0.239-0.168,0.436-0.566,0.587
			c-0.077-0.001-0.155-0.003-0.232-0.004c0.547,0.967,0.866,2.188,0.953,3.664c0.086,1.477,0.292,2.655,0.62,3.537
			c0.309,1.122,0.657,2.265,1.044,3.425c0.387,1.163,0.777,2.306,1.17,3.427c0.077,0.001,0.157-0.016,0.239-0.055
			c0.08-0.038,0.16-0.057,0.239-0.055c0.386,0.087,0.566,0.329,0.539,0.727c-0.005,0.079-0.011,0.159-0.016,0.238
			c-0.006,0.08-0.03,0.14-0.071,0.178c-0.043,0.04-0.066,0.099-0.071,0.178c-0.165,0.117-0.33,0.233-0.495,0.35
			c0.123,0.48,0.247,0.961,0.373,1.441c0.124,0.48,0.251,0.921,0.382,1.321c0.407,0.963,0.811,1.987,1.213,3.069
			c0.402,1.082,0.803,2.185,1.205,3.307c0.119,0.002,0.238,0.004,0.356,0.006c0.147,0.163,0.199,0.283,0.155,0.361
			c-0.046,0.079-0.072,0.198-0.083,0.357c-0.005,0.08-0.028,0.119-0.067,0.119c-0.041-0.001-0.062,0.04-0.067,0.118
			c0.545,1.365,1.011,2.766,1.397,4.206c0.386,1.44,0.813,2.881,1.283,4.323c0.225,0.242,0.289,0.483,0.195,0.72
			c0.525,1.842,0.995,3.661,1.41,5.46c0.413,1.799,0.809,3.617,1.184,5.455c0.161,0.003,0.323,0.005,0.484,0.007
			c0.317,0.085,0.463,0.366,0.435,0.843c-0.005,0.08-0.051,0.16-0.135,0.237c-0.086,0.079-0.153,0.177-0.199,0.296
			c-0.049,0.119-0.115,0.218-0.199,0.296c0.277,1.478,0.556,2.956,0.836,4.433c0.043-0.039,0.086-0.078,0.128-0.117
			c0.029,0.2,0.059,0.399,0.088,0.599c-0.002,0.04-0.005,0.079-0.007,0.119c0.988-0.224,1.673-0.173,2.063,0.15
			c0.226,0.323,0.21,0.601-0.046,0.836c-0.388,0.393-0.776,0.785-1.164,1.178c0.07,0.2,0.14,0.4,0.21,0.6
			c0.166-0.076,0.408-0.033,0.726,0.13c-0.013,0.239,0.056,0.44,0.211,0.6c0.231,0.243,0.298,0.482,0.205,0.72
			c0.627,1.921,1.171,3.959,1.63,6.117c0.457,2.156,1.044,4.277,1.762,6.356c0.041,0.001,0.082,0.001,0.123,0.002
			c0.035,0.12,0.07,0.24,0.105,0.36c-0.041-0.001-0.082-0.001-0.123-0.002c0.206,0.8,0.461,1.44,0.768,1.922
			c0.043-0.039,0.086-0.078,0.13-0.118c0.255,0.68,0.51,1.361,0.765,2.041c0.668,1.523,1.555,2.848,2.666,3.976
			c0.17-0.077,0.339-0.155,0.509-0.232c0.67-0.151,0.91,0.052,0.719,0.606c-0.004,0.08,0.035,0.12,0.119,0.121
			c-0.128,0.078-0.256,0.156-0.384,0.235c-0.044,0.039-0.087,0.078-0.13,0.118c0.159,0.161,0.317,0.322,0.476,0.484
			c0.422-0.153,0.762-0.308,1.018-0.466c0.257-0.156,0.468-0.273,0.639-0.351c0.425-0.234,0.694-0.21,0.806,0.069
			c0.113,0.281,0.037,0.579-0.226,0.893c0.041,0,0.083,0.001,0.124,0.001c-0.087,0.079-0.214,0.117-0.379,0.115
			c-0.216,0.197-0.433,0.393-0.65,0.59c0.484,0.325,1.221,0.611,2.209,0.861c0.082,0.001,0.125-0.017,0.127-0.058
			c0.002-0.039,0.043-0.059,0.127-0.058c0.082,0.001,0.145-0.017,0.19-0.058c0.042-0.039,0.106-0.059,0.189-0.058
			c0.325,0.164,0.486,0.325,0.479,0.483c0.162,0.082,0.37,0.123,0.619,0.126c0.409,0.165,0.588,0.365,0.537,0.603
			c-0.053,0.239-0.289,0.436-0.711,0.59c0.159,0.162,0.234,0.401,0.221,0.719c-0.015,0.358-0.03,0.716-0.044,1.075
			c0.462-0.075,0.924-0.149,1.386-0.224c0.329,0.084,0.486,0.364,0.467,0.841c-0.184,0.395-0.319,0.633-0.404,0.712
			c-0.088,0.077-0.343,0.195-0.767,0.35c-0.125-0.001-0.251-0.003-0.376-0.004c0.15,0.399-0.072,0.716-0.666,0.948
			c-0.67-0.007-2.028-0.043-4.074-0.106c-2.048-0.065-4.323-0.133-6.829-0.205c-2.506-0.075-5.054-0.171-7.639-0.288
			c-2.587-0.12-4.712-0.273-6.372-0.459c-0.084-0.001-0.128,0.037-0.133,0.117c-0.506,0.07-1.036,0.162-1.586,0.272
			c-0.552,0.11-1.121,0.161-1.705,0.15c-0.139,0.197-0.277,0.393-0.416,0.59c-0.43,0.151-0.714,0.027-0.854-0.374
			c-0.328-1.361-0.492-2.638-0.493-3.833c-0.083-0.002-0.167-0.003-0.25-0.004c-0.239-0.163-0.372-0.365-0.397-0.604
			c-0.026-0.24,0.092-0.436,0.353-0.591c0.693-0.385,1.563-0.63,2.612-0.731c1.047-0.101,1.755-0.427,2.124-0.979
			c0.201-0.553,0.28-1.149,0.24-1.788c-0.427,0.153-0.716,0.148-0.872-0.015c-0.317-0.244-0.337-0.562-0.062-0.957
			c0.175-0.155,0.435-0.31,0.777-0.465c0.042,0.001,0.083,0.001,0.125,0.002c-0.162-1.356-0.516-2.955-1.055-4.798
			c-0.331-0.006-0.576-0.049-0.735-0.132c-0.32-0.165-0.471-0.367-0.456-0.605c0.037-0.556,0.201-1.15,0.49-1.784
			c-0.329-1.279-0.719-2.522-1.171-3.725c-0.454-1.203-0.852-2.286-1.194-3.248c-0.022,0.319-0.181,0.535-0.475,0.649
			c-0.296,0.114-0.511-0.028-0.647-0.43c-0.032-0.718-0.232-1.379-0.598-1.983c-0.368-0.605-0.647-1.267-0.84-1.988
			c-0.905,0.064-1.845,0.085-2.824,0.066c-0.979-0.019-1.918-0.037-2.815-0.055c-0.251,0.076-0.581,0.108-0.988,0.1
			c-0.204-0.004-0.408-0.008-0.612-0.012c-4.011,0.078-8.023,0.15-12.038,0.216c-1.559,0.044-3.037,0.108-4.436,0.194
			c-1.401,0.086-2.865-0.01-4.392-0.288c0.147,0.164,0.042,0.401-0.314,0.71c-0.358,0.31-0.682,0.7-0.974,1.171
			c-0.121,0.397-0.279,0.752-0.473,1.064c-0.196,0.315-0.394,0.669-0.596,1.061c-0.016,0.16-0.054,0.338-0.114,0.535
			c-0.062,0.198-0.099,0.377-0.114,0.535C91.187,162.483,91.097,162.56,91.007,162.637z M119.902,145.238
			c-0.094,0.159-0.222,0.255-0.386,0.291c-0.166,0.038-0.319-0.066-0.462-0.307c-0.151-0.162-0.219-0.322-0.207-0.482
			c-0.115-0.082-0.23-0.164-0.345-0.246c-0.201-0.56-0.401-1.102-0.604-1.625c-0.202-0.522-0.363-1.063-0.481-1.623
			c0.006-0.078-0.01-0.138-0.047-0.18c-0.039-0.04-0.053-0.1-0.047-0.181c-0.379-1.361-0.62-2.92-0.725-4.676
			c-0.132-0.361-0.265-0.723-0.397-1.084c-0.24-0.005-0.398-0.047-0.471-0.129c-0.037-0.041-0.074-0.081-0.111-0.122
			c-0.903-1.77-1.498-3.815-1.789-6.133c-0.387-1.123-0.813-2.268-1.272-3.434c-0.461-1.164-0.568-2.263-0.324-3.294
			c-0.126-0.401-0.251-0.801-0.375-1.203c-0.126-0.401-0.212-0.8-0.256-1.201c-0.066-0.16-0.085-0.4-0.058-0.719
			c-0.102,0.277-0.204,0.553-0.307,0.83c0.144,0.164,0.045,0.401-0.296,0.711c0.039,0.001,0.079,0.002,0.118,0.003
			c-0.172,0.157-0.298,0.233-0.375,0.231c-0.043,0.039-0.086,0.078-0.128,0.117c-0.547,0.865-1.096,1.729-1.646,2.593
			c-0.103,0.277-0.206,0.553-0.309,0.83c-0.01,0.119-0.02,0.239-0.031,0.358c-0.043,0.039-0.086,0.078-0.129,0.117
			c0.04,0.001,0.079,0.002,0.119,0.003c-0.086,0.078-0.172,0.155-0.258,0.233c-0.246,0.552-0.492,1.105-0.739,1.657
			c-0.186,0.315-0.373,0.629-0.559,0.944c-0.007,0.08-0.051,0.118-0.13,0.116c-0.021,0.239-0.125,0.516-0.311,0.83
			c-0.007,0.08,0.008,0.12,0.049,0.121c0.039,0.001,0.056,0.042,0.049,0.121c-0.195,0.395-0.386,0.768-0.577,1.123
			c-0.192,0.354-0.423,0.728-0.697,1.12c-0.13,0.117-0.26,0.233-0.39,0.35c-0.306,0.75-0.612,1.5-0.919,2.25
			c0.08,0.002,0.16,0.004,0.239,0.006c0.311,0.087,0.448,0.369,0.406,0.846c-0.123,0.476-0.341,0.909-0.656,1.3
			c-0.317,0.392-0.692,0.782-1.128,1.169c-0.004,0.04-0.007,0.079-0.011,0.119c-0.24,0.433-0.48,0.866-0.72,1.298
			c0.219,0.244,0.152,0.523-0.196,0.832c-0.088,0.079-0.212,0.115-0.372,0.111c-0.007,0.08-0.034,0.139-0.077,0.177
			c-0.045,0.04-0.069,0.099-0.076,0.177c0.153,0.084,0.291,0.327,0.417,0.727c0.04,0.001,0.081,0.002,0.121,0.003
			c-0.048,0.079-0.095,0.157-0.143,0.236c-0.212,0.554-0.502,1.085-0.87,1.594c-0.37,0.51-0.7,1.041-0.994,1.59
			c-0.004,0.04-0.007,0.08-0.011,0.12c-0.04-0.001-0.081-0.002-0.121-0.003c-0.154,0.355-0.308,0.71-0.462,1.065
			c-0.022,0.238-0.079,0.398-0.165,0.474c-0.007,0.08,0.008,0.12,0.049,0.121c0.04,0.001,0.057,0.043,0.049,0.121
			c1.116,0.188,2.248,0.194,3.398,0.021c1.148-0.171,2.368-0.244,3.661-0.215c0.228,0.166,0.339,0.288,0.332,0.366
			c1.056-0.055,2.072-0.092,3.045-0.112c0.972-0.018,1.943-0.018,2.913,0.003c1.883-0.278,3.914-0.397,6.093-0.354
			c0.316,0.087,0.458,0.368,0.422,0.845c-0.006,0.08-0.012,0.159-0.018,0.238c-0.521,0.468-0.887,0.502-1.1,0.098
			c-0.081-0.002-0.161-0.003-0.242-0.005C118.545,146.087,119.224,145.663,119.902,145.238z"/>
		<path fill="#30469D" d="M158.887,121.563c0.002-0.04,0.003-0.08,0.005-0.12c-0.079-0.001-0.117-0.04-0.114-0.121
			c0.039,0,0.079,0.001,0.118,0.001c-0.038-0.04-0.076-0.08-0.114-0.121c-0.112-0.16-0.224-0.321-0.336-0.481
			c-0.039,0-0.079-0.001-0.118-0.001c-0.259-0.441-0.517-0.882-0.775-1.322c-0.412-0.522-0.824-1.044-1.235-1.566
			c-0.038-0.04-0.075-0.081-0.113-0.121c-0.381-0.321-0.852-0.786-1.416-1.389c-0.563-0.604-0.948-1.225-1.155-1.865
			c-0.368-0.561-0.773-1.124-1.217-1.687c-0.444-0.561-0.729-1.203-0.851-1.922c-0.689-1.163-1.375-2.327-2.059-3.49
			c-0.075-0.079-0.107-0.199-0.099-0.36c-0.144-0.241-0.288-0.481-0.432-0.722c-0.526-0.404-1.033-0.79-1.519-1.155
			c-0.489-0.365-0.996-0.709-1.522-1.036c-0.078-0.001-0.156-0.002-0.233-0.003c-0.225-0.162-0.449-0.325-0.674-0.487
			c-0.037-0.04-0.073-0.081-0.11-0.121c-0.144-0.241-0.172-0.439-0.085-0.598c-0.462-0.085-0.927-0.092-1.397-0.02
			c-0.47,0.073-0.934,0.027-1.39-0.14c-0.116-0.002-0.233-0.003-0.349-0.005c-0.6-0.407-0.933-1.009-1.003-1.807
			c-0.071-0.796-0.049-1.513,0.066-2.149c0.269-0.633,0.547-0.787,0.839-0.465c0.077,0.001,0.154,0.002,0.232,0.003
			c0.08-0.039,0.159-0.077,0.239-0.116c1.418-0.457,3.124-0.591,5.125-0.406c1.118-0.702,2.438-0.882,3.968-0.546
			c1.528,0.338,2.87,0.594,4.022,0.765c0.076,0.041,0.151,0.081,0.227,0.122c1.744-0.1,3.487-0.2,5.229-0.302
			c0.119-0.078,0.238-0.157,0.357-0.235c0.54,0.005,1.081,0.011,1.621,0.016c0.003-0.078,0.121-0.118,0.352-0.116
			c1.173-0.386,2.18-0.536,3.028-0.45c0.077,0.001,0.154,0.001,0.231,0.002c-0.001,0.04-0.003,0.08-0.004,0.119
			c0.075,0.08,0.149,0.16,0.224,0.241c0.463,0.004,0.926,0.008,1.39,0.012s0.928-0.031,1.393-0.108
			c0.037,0.04,0.075,0.08,0.112,0.12c0.039,0,0.077,0.001,0.116,0.001c0.225,0.241,0.293,0.48,0.21,0.719
			c-0.002,0.08-0.005,0.159-0.007,0.239c-0.01,0.319,0.02,0.598,0.091,0.837c-0.04,0.039-0.08,0.079-0.12,0.118
			c-0.014,0.478,0.014,0.797,0.087,0.956c0.077,0.001,0.155,0.001,0.232,0.002c-0.001,0.04-0.002,0.08-0.004,0.12
			c0.04-0.04,0.08-0.079,0.12-0.119c-0.001,0.04-0.002,0.08-0.004,0.12c0.377,0.322,0.447,0.601,0.207,0.837
			c0.226,0.241,0.256,0.5,0.093,0.777c-0.164,0.279-0.4,0.376-0.707,0.293c-0.306-0.161-0.496-0.321-0.567-0.482
			c-0.162,0.159-0.318,0.236-0.473,0.235c-1.322,0.069-2.182,0.301-2.583,0.695c-0.005,0.159-0.011,0.318-0.016,0.478
			c0.141,0.4,0.266,0.76,0.372,1.078c0.106,0.32,0.229,0.679,0.373,1.078c0.294,0.48,0.547,1.121,0.756,1.918
			c-0.002,0.08-0.025,0.14-0.065,0.179c-0.041,0.041-0.062,0.1-0.064,0.178c-0.079-0.001-0.004,0.119,0.223,0.36
			c-0.003,0.079-0.005,0.159-0.008,0.239c0.224,0.321,0.39,0.621,0.498,0.9c0.108,0.281,0.235,0.58,0.382,0.899
			c0.111,0.2,0.222,0.4,0.333,0.6c0.077,0.001,0.157-0.038,0.238-0.117c0.238-0.118,0.476-0.235,0.714-0.353
			c0.313-0.076,0.527,0.004,0.637,0.244c0.11,0.24,0.083,0.478-0.08,0.716c-0.039,0-0.078-0.001-0.117-0.001
			c-0.001,0.04-0.002,0.08-0.004,0.12c-0.121,0.118-0.242,0.237-0.363,0.355c0.146,0.321,0.275,0.62,0.384,0.899
			c0.109,0.281,0.236,0.58,0.385,0.899c0.147,0.321,0.315,0.581,0.507,0.78c0.189,0.201,0.361,0.382,0.514,0.541
			c-0.001,0.04-0.002,0.08-0.003,0.119c0.317-0.156,0.513-0.115,0.585,0.124c0.04-0.039,0.081-0.079,0.121-0.118
			c-0.002,0.08-0.004,0.159-0.007,0.239c0.683,0.882,1.36,2.001,2.035,3.358c0.403-0.395,0.676-0.313,0.821,0.244
			c0.147,0.4,0.256,0.76,0.328,1.077c0.07,0.32,0.102,0.678,0.093,1.076c0.384,0.401,0.691,0.822,0.918,1.259
			c0.227,0.44,0.493,0.86,0.801,1.259c0.379,0.719,0.739,1.479,1.078,2.276c0.339,0.799,0.699,1.597,1.08,2.395
			c0.04,0,0.08,0,0.12,0.001c-0.001,0.04-0.002,0.08-0.002,0.119c0.116,0.16,0.232,0.32,0.348,0.48
			c0.041-0.04,0.081-0.079,0.122-0.119c0.122-0.159,0.244-0.317,0.367-0.476c0.003-0.159,0.044-0.278,0.127-0.358
			c0.082-0.119,0.163-0.238,0.245-0.357c0.121-0.119,0.243-0.237,0.364-0.356c0.203-0.238,0.406-0.476,0.608-0.714
			c0.17-0.635,0.5-1.311,0.987-2.026c0.487-0.714,1.014-1.468,1.58-2.262c-0.077-0.159-0.113-0.359-0.109-0.598
			c0.648-1.031,1.394-2.064,2.235-3.097c0.841-1.03,1.736-1.864,2.686-2.499c0.04-0.04,0.08-0.079,0.12-0.119
			c0.401-0.794,0.842-1.569,1.32-2.325c0.478-0.755,1.03-1.291,1.66-1.608c0.001-0.078,0.079-0.197,0.238-0.357
			c0.083-0.636,0.245-1.212,0.484-1.731c0.239-0.516,0.554-1.053,0.949-1.61c-0.546-0.001-0.739-0.28-0.578-0.837
			c0.239-0.636,0.594-1.253,1.065-1.849c0.471-0.596,0.9-1.133,1.293-1.61c0.002-0.398-0.073-0.836-0.225-1.314
			c-0.234,0.238-0.39,0.16-0.464-0.24c-0.697-0.2-1.393-0.401-2.089-0.601c-0.31-0.079-0.462-0.279-0.46-0.598
			c-0.156,0-0.272-0.079-0.346-0.24c-0.153-0.318-0.11-0.597,0.124-0.836c0.002-0.159,0.04-0.278,0.119-0.358
			c-0.117,0.079-0.234,0.159-0.35,0.238c0.158-0.397,0.277-0.755,0.358-1.074c0.079-0.317,0.08-0.478,0.004-0.478
			c0.039,0,0.077,0,0.116,0c0.002-0.199,0.004-0.398,0.005-0.597c0.158-0.397,0.352-0.576,0.583-0.536
			c0.232,0.042,0.383,0.26,0.458,0.658c0.309-0.158,0.581-0.238,0.813-0.238c-0.153-0.397,0.005-0.716,0.47-0.955
			c0.232,0,0.828-0.017,1.794-0.057c0.964-0.038,1.985-0.037,3.066,0.003c1.08,0.042,2.063,0.101,2.95,0.18
			c0.887,0.08,1.407,0.238,1.563,0.477c1.774-0.16,3.531-0.261,5.267-0.305c1.736-0.042,3.49,0.132,5.272,0.524
			c0.303-0.318,0.536-0.199,0.699,0.356c0.541-0.002,0.929,0.077,1.162,0.235c0.311,0.238,0.355,0.517,0.127,0.836
			c-0.38,0.439-0.761,0.879-1.141,1.318c-0.308,0.32-0.501,0.401-0.579,0.241c-0.112,0.359-0.223,0.718-0.335,1.076
			c0.31,0.159,0.39,0.317,0.238,0.477c0.08,0.319-0.109,0.558-0.573,0.718c-0.116,0-0.232,0.001-0.349,0.001
			c-0.078,0-0.195-0.078-0.353-0.238c-0.388,0.081-0.753,0.121-1.104,0.122c-0.349,0.001-0.678,0.082-0.987,0.242
			c0.002,0.239-0.074,0.438-0.227,0.598c-0.308,0.319-0.677,0.479-1.102,0.48c-0.427,0.001-0.835,0.082-1.221,0.241
			c-0.078,0.08-0.194,0.12-0.349,0.12c-0.232,0.239-0.464,0.478-0.696,0.717c-0.077,0.12-0.154,0.239-0.231,0.359
			c0.002,0.319-0.075,0.558-0.229,0.717c-0.465,0.24-0.814,0.479-1.047,0.718c-0.271,0.359-0.543,0.717-0.815,1.076
			c-0.543,0.878-1.029,1.852-1.455,2.927c-0.428,1.075-1.073,1.932-1.935,2.569c-0.235,0.16-0.431,0.16-0.587,0
			c-0.666,1.035-1.334,2.07-2.004,3.104c0.039,0,0.079,0,0.118,0c-0.197,0.279-0.394,0.557-0.591,0.836
			c-0.592,0.995-1.186,1.99-1.782,2.984c-0.12,0.398-0.24,0.796-0.36,1.194c-0.08,0.08-0.119,0.199-0.12,0.358
			c-0.039,0-0.079,0-0.118,0c-0.16,0.16-0.279,0.238-0.357,0.238c-0.717,1.233-1.437,2.466-2.159,3.699
			c-0.325,1.035-0.649,1.831-0.97,2.387c0,0.04-0.001,0.08-0.001,0.119c-0.04,0-0.079,0-0.119,0c-0.24,0.239-0.44,0.318-0.598,0.238
			c-0.202,0.358-0.403,0.716-0.606,1.073c-0.162,0.16-0.263,0.318-0.303,0.477c-0.042,0.16-0.143,0.318-0.303,0.477
			c-0.08,0.079-0.161,0.159-0.241,0.238c-0.364,0.557-0.728,1.113-1.093,1.669c-0.001,0.08-0.022,0.14-0.062,0.179
			c-0.041,0.041-0.062,0.14-0.064,0.299c-0.04,0.04-0.081,0.079-0.121,0.119c-0.168,0.638-0.354,1.253-0.56,1.85
			c-0.207,0.596-0.633,1.054-1.276,1.37c-0.242,0.16-0.443,0.159-0.6-0.002c-0.243,0.238-0.529,0.595-0.855,1.072
			c-0.001,0.04-0.001,0.08-0.002,0.119c-0.093,0.877-0.324,1.652-0.695,2.326c-0.371,0.676-0.725,1.412-1.058,2.206
			c0.11,0.677,0.221,1.354,0.331,2.032c0.031,0.637,0.061,1.274,0.092,1.911c0.078,0.08,0.118,0.2,0.116,0.359
			c-0.016,1.116-0.094,2.25-0.233,3.403c-0.139,1.155-0.259,2.289-0.356,3.402c0.159,0.162,0.238,0.401,0.233,0.718
			c-0.011,0.716-0.043,1.414-0.093,2.09c-0.052,0.677-0.082,1.334-0.091,1.97c0.076,0.32,0.112,0.717,0.105,1.195
			c-0.042,0.04-0.083,0.079-0.125,0.119c-0.001,0.08-0.002,0.159-0.004,0.239c0.242,0.239,0.361,0.479,0.357,0.718
			c-0.018,1.234-0.037,2.468-0.055,3.702c0.325,0.162,0.488,0.321,0.485,0.48c-0.006,0.399-0.178,0.877-0.514,1.431
			c-0.004,0.239,0.012,0.459,0.052,0.657c0.038,0.2,0.056,0.379,0.054,0.538c0.413-0.157,0.616,0.082,0.607,0.719
			c-0.04,2.788-0.047,4.639-0.017,5.554c0.027,0.916,0.041,1.493,0.037,1.732c-0.003,0.239,0.012,0.498,0.051,0.777
			c0.037,0.28,0.046,1.134,0.026,2.568c-0.002,0.159-0.004,0.318-0.007,0.478c0.082,0,0.166-0.039,0.251-0.118
			c0.416-0.076,0.916-0.176,1.5-0.293c0.582-0.118,1.165-0.236,1.749-0.353c0.581-0.117,1.101-0.156,1.558-0.115
			c0.455,0.042,0.765,0.222,0.93,0.54c0.164,0.239,0.202,0.499,0.118,0.776c-0.086,0.28-0.047,0.498,0.119,0.657
			c0.413,0.319,0.533,0.798,0.362,1.434c-0.173,0.638-0.343,1.115-0.512,1.432c-0.252,0.238-0.462,0.357-0.629,0.356
			c-0.002,0.161-0.087,0.319-0.255,0.477c-0.252,0.16-1.048,0.296-2.384,0.411c-1.338,0.116-2.927,0.209-4.764,0.282
			c-1.839,0.071-3.803,0.103-5.89,0.091c-2.089-0.011-4.072-0.024-5.951-0.036c-1.879-0.013-3.508-0.025-4.886-0.036
			c-1.379-0.011-2.236-0.018-2.568-0.021c-0.33-0.163-0.47-0.362-0.419-0.601c0.049-0.239,0.243-0.435,0.583-0.592
			c0.209,0.002,0.417,0.004,0.626,0.005c0.043-0.04,0.086-0.079,0.129-0.119c-0.495-0.163-0.841-0.485-1.032-0.964
			c-0.193-0.479-0.451-0.918-0.769-1.32c-0.076-0.24-0.109-0.479-0.101-0.718c0.353-0.633,0.845-1.026,1.474-1.182
			c0.629-0.154,1.296-0.247,2.004-0.282c0.706-0.033,1.393-0.067,2.06-0.103c0.666-0.034,1.212-0.29,1.642-0.765
			c0.211-1.67,0.38-3.321,0.507-4.953c0.126-1.63,0.254-3.322,0.384-5.074c0.009-0.318,0.017-0.637,0.026-0.955
			c-0.745,0.155-1.32,0.11-1.724-0.132c-0.403-0.32-0.434-0.64-0.096-0.956c0.596-0.791,1.231-1.463,1.903-2.017
			c-0.061-0.795-0.102-1.572-0.122-2.33c-0.022-0.756-0.021-1.533,0.001-2.329c-0.245-0.002-0.362-0.201-0.351-0.6
			c0.107-2.428,0.214-4.856,0.32-7.283c-0.166,0.079-0.217-0.259-0.155-1.016c0.06-0.756,0.145-1.611,0.252-2.566
			c-0.139-0.876-0.276-1.773-0.411-2.691c-0.137-0.915-0.232-1.853-0.285-2.809c-0.604-1.438-1.267-2.816-1.988-4.136
			c-0.724-1.319-1.462-2.658-2.216-4.019c-0.156-0.16-0.231-0.28-0.228-0.36c-0.312-0.241-0.502-0.56-0.567-0.96
			c-0.309-0.32-0.574-0.721-0.798-1.201c-0.265-0.401-0.53-0.801-0.795-1.202c-0.037-0.08-0.074-0.16-0.112-0.24
			c-0.155-0.16-0.229-0.28-0.226-0.361c-0.45-0.799-0.981-1.521-1.593-2.165c-0.613-0.642-1.141-1.364-1.586-2.165
			c-0.447-0.761-0.893-1.522-1.338-2.283c-0.187-0.281-0.373-0.561-0.56-0.842C158.914,121.843,158.88,121.723,158.887,121.563z"/>
		<path fill="#30469D" d="M238.4,136.794c0.011,0.319-0.001,0.598-0.032,0.837c-0.033,0.239-0.043,0.519-0.032,0.836
			c1.114-0.249,1.577-0.193,1.389,0.167c-0.189,0.36-0.632,0.863-1.334,1.505c0.073,0.995,0.146,1.99,0.219,2.985
			c0.003,0.08,0.005,0.159,0.008,0.239c0.046,0.159,0.091,0.318,0.137,0.477c0.061,0.636,0.123,1.273,0.185,1.91
			c0.083,0.079,0.129,0.199,0.134,0.357c0.038,1.116,0.014,2.251-0.069,3.405c-0.083,1.156-0.148,2.291-0.191,3.406
			c0.167,0.159,0.257,0.397,0.267,0.715c0.024,0.716,0.026,1.414,0.009,2.09c-0.02,0.678-0.017,1.335,0.004,1.971
			c0.091,0.319,0.146,0.716,0.162,1.193c-0.04,0.04-0.079,0.08-0.118,0.12c0.003,0.08,0.005,0.159,0.008,0.239
			c0.253,0.236,0.384,0.474,0.392,0.713c0.041,1.234,0.083,2.468,0.124,3.702c0.332,0.157,0.503,0.315,0.508,0.473
			c0.013,0.399-0.135,0.879-0.444,1.437c0.008,0.239,0.035,0.459,0.084,0.656c0.047,0.199,0.074,0.378,0.08,0.537
			c0.405-0.163,0.619,0.075,0.641,0.711c0.095,2.788,0.178,4.638,0.252,5.552c0.072,0.916,0.113,1.492,0.121,1.731
			c0.008,0.239,0.037,0.498,0.089,0.776c0.051,0.279,0.102,1.134,0.151,2.567c0.005,0.159,0.011,0.318,0.016,0.478
			c0.081-0.001,0.164-0.041,0.245-0.122c0.412-0.082,0.907-0.187,1.485-0.312c0.576-0.125,1.154-0.25,1.732-0.375
			c0.576-0.125,1.094-0.17,1.553-0.135c0.457,0.036,0.775,0.212,0.956,0.528c0.175,0.237,0.226,0.496,0.155,0.775
			c-0.073,0.281-0.023,0.499,0.151,0.656c0.427,0.314,0.571,0.791,0.432,1.429c-0.142,0.64-0.289,1.119-0.442,1.438
			c-0.242,0.241-0.446,0.363-0.612,0.364c0.006,0.161-0.071,0.32-0.231,0.48c-0.244,0.163-1.033,0.31-2.364,0.442
			c-1.332,0.133-2.915,0.246-4.749,0.342c-1.836,0.095-3.798,0.151-5.885,0.166c-2.089,0.015-4.072,0.028-5.951,0.039
			c-1.879,0.011-3.509,0.019-4.886,0.026c-1.379,0.007-2.235,0.01-2.569,0.011c-0.337-0.159-0.486-0.356-0.447-0.595
			c0.037-0.239,0.222-0.438,0.553-0.599c0.209-0.001,0.417-0.002,0.626-0.003c0.041-0.04,0.082-0.08,0.123-0.12
			c-0.503-0.156-0.864-0.474-1.079-0.951c-0.216-0.477-0.495-0.912-0.833-1.31c-0.088-0.239-0.132-0.477-0.135-0.716
			c0.323-0.637,0.795-1.037,1.417-1.2c0.62-0.162,1.283-0.263,1.99-0.308c0.704-0.042,1.389-0.085,2.054-0.129
			c0.663-0.042,1.197-0.305,1.603-0.785c0.13-1.673,0.219-3.325,0.268-4.958c0.046-1.632,0.093-3.324,0.138-5.077
			c-0.007-0.318-0.014-0.637-0.021-0.955c-0.737,0.164-1.314,0.127-1.73-0.11c-0.419-0.315-0.465-0.634-0.142-0.955
			c0.558-0.798,1.159-1.479,1.805-2.04c-0.1-0.795-0.178-1.571-0.235-2.328c-0.059-0.755-0.094-1.532-0.111-2.328
			c-0.246,0.001-0.372-0.196-0.381-0.595c0.062-2.867,0.123-5.734,0.183-8.6c-0.404,0.163-0.609-0.036-0.62-0.594
			c-0.05-2.389-0.039-4.757,0.032-7.107c0.071-2.348,0.08-4.718,0.03-7.107c-0.001-0.04-0.002-0.08-0.003-0.119
			c0.227-0.637,0.502-0.798,0.829-0.482c-0.084-0.158-0.13-0.477-0.141-0.955c0.039-0.04,0.078-0.08,0.117-0.12
			c-0.009-0.397-0.039-0.816-0.087-1.254c-0.051-0.436-0.078-0.854-0.087-1.254c-0.002-0.078-0.024-0.179-0.066-0.298
			c-0.044-0.12-0.065-0.257-0.069-0.418c-0.238,0.001-0.362-0.196-0.371-0.595c0.12-1.792,0.24-3.585,0.359-5.377
			c-0.078,0.04-0.156,0.081-0.235,0.121c-0.016-0.756-0.033-1.513-0.049-2.269c0.077-0.001,0.118-0.019,0.117-0.06
			c-0.001-0.04,0.037-0.06,0.117-0.06c-0.009-0.398-0.017-0.796-0.026-1.194c-0.074,0.239-0.228,0.401-0.463,0.48
			c-0.236,0.082-0.437-0.076-0.602-0.474c-0.204-2.228-0.408-4.457-0.61-6.685c-0.159,0.001-0.239-0.158-0.246-0.476
			c-0.057-2.826-0.115-5.653-0.172-8.479c-0.077,0.081-0.154,0.12-0.231,0.121c-1.087,0.166-1.885,0.089-2.396-0.227
			c-0.512-0.315-0.927-0.752-1.246-1.308c-0.077,0.08-0.154,0.12-0.231,0.12c-0.078,0-0.138-0.119-0.18-0.357
			c-0.044-0.239-0.106-0.477-0.186-0.716c-0.322-0.635-0.599-1.111-0.837-1.43c-0.161-0.317-0.145-0.596,0.045-0.836
			c0.188-0.239,0.401-0.279,0.636-0.122c0.077,0,0.117-0.019,0.116-0.06c-0.001-0.039,0.037-0.06,0.115-0.06
			c0.848-0.162,1.738-0.206,2.668-0.132c0.93,0.076,1.82,0.111,2.671,0.106c3.251-0.018,6.442-0.058,9.576-0.124
			c3.133-0.064,6.324-0.114,9.574-0.147c0.039,0,0.077-0.001,0.116-0.001c0.081,0.079,0.161,0.158,0.242,0.237
			c0.38-0.162,0.583,0.074,0.609,0.711c-0.043,0.877-0.134,1.495-0.274,1.854c-0.142,0.36-0.348,0.562-0.617,0.604
			c-0.271,0.044-0.583,0.006-0.936-0.11c-0.354-0.116-0.726-0.172-1.113-0.168c-0.075,0.081-0.151,0.121-0.228,0.122
			c-0.155,0.001-0.311,0.003-0.466,0.004c-0.389,0.004-0.733,0.168-1.031,0.488c-0.378,0.323-0.657,0.684-0.836,1.083
			c-0.181,0.401-0.341,0.839-0.479,1.318c0.244,0.317,0.254,0.595,0.029,0.836c-0.079,0.001-0.116,0.042-0.114,0.12
			c-0.143,0.401-0.265,0.779-0.37,1.138c-0.105,0.359-0.23,0.7-0.375,1.019c0.137,4.1,0.275,8.2,0.412,12.299
			c-0.038,0.04-0.077,0.08-0.115,0.12c0.118,1.194,0.217,2.369,0.297,3.521c0.078,1.155,0.138,2.328,0.178,3.522
			c0.278-0.002,0.556-0.005,0.835-0.007c0.643,0.233,0.735,0.59,0.275,1.072c-0.385,0.362-0.771,0.724-1.157,1.085
			c-0.108,1.595-0.298,3.069-0.572,4.425c0.013,0.398,0.026,0.796,0.039,1.194c-0.16,0.001-0.32,0.003-0.481,0.004
			c-0.078,0.081-0.157,0.121-0.236,0.121c-0.041-1.274-0.082-2.547-0.123-3.821c0.037-0.08,0.075-0.16,0.112-0.24
			c-0.039,0.04-0.077,0.08-0.116,0.12c-0.013-0.397-0.006-0.756,0.025-1.075c0.029-0.318,0.038-0.676,0.025-1.075
			c0.077-0.08,0.154-0.161,0.231-0.241c-0.003-0.079-0.005-0.159-0.008-0.239c-0.078,0.04-0.156,0.081-0.235,0.121
			c-0.015-0.478-0.031-0.955-0.046-1.433c0.002,0.08,0.044,0.16,0.127,0.238c0.078-0.04,0.156-0.081,0.234-0.121
			c-0.017-0.517-0.034-1.035-0.051-1.552c0.466-0.321,0.712-0.084,0.738,0.71c0.048,1.433,0.075,2.866,0.083,4.299
			c0.007,1.433,0.034,2.827,0.079,4.18c0.04,0,0.08-0.001,0.12-0.001c-0.039,0.04-0.077,0.08-0.116,0.12
			c0.004,0.119,0.008,0.239,0.012,0.358c0.195-0.161,0.39-0.322,0.585-0.483C239.062,136.272,238.871,136.473,238.4,136.794z"/>
		<path fill="#30469D" d="M271.174,163.507c-0.126,0.64-0.362,1.48-0.709,2.52c-0.35,1.042-0.696,2.122-1.042,3.243
			c-0.114,0.879-0.313,1.698-0.597,2.459c-0.287,0.762-0.528,1.582-0.725,2.46c-0.087,0.639-0.175,1.277-0.263,1.916
			c0.005,0.079,0.009,0.159,0.014,0.239c-0.039,0.041-0.078,0.081-0.117,0.122c-0.061,0.4-0.141,0.799-0.242,1.198
			c-0.102,0.401-0.225,0.801-0.367,1.201c0.198,0.555,0.487,0.889,0.869,1.002c0.382,0.114,0.904,0.165,1.572,0.155
			c0.156-0.161,0.443-0.246,0.86-0.252c0.171,0.077,0.342,0.154,0.513,0.231c0.002,0.04,0.005,0.079,0.007,0.119
			c0.167-0.003,0.339,0.115,0.522,0.35c0.111,0.476,0.142,0.995,0.094,1.552c0.005,0.081-0.036,0.12-0.118,0.122
			c0.007,0.119,0.014,0.239,0.022,0.358c-0.306,0.483-0.59,0.607-0.855,0.372c-0.913,0.094-1.827,0.188-2.74,0.281
			c-0.575,0.167-1.215,0.317-1.917,0.447c-0.704,0.13-1.394,0.119-2.07-0.03c-2.656,0.355-5.293,0.649-7.916,0.881
			c-2.623,0.23-4.992,0.119-7.098-0.336c-0.43-0.314-0.526-0.591-0.284-0.833c-0.125,0.001-0.251,0.003-0.376,0.004
			c-0.329,0.084-0.562,0.027-0.695-0.172c-0.133-0.196-0.122-0.456,0.032-0.777c0.165-0.08,0.306-0.162,0.428-0.243
			c0.122-0.08,0.266-0.122,0.433-0.124c-0.002-0.04-0.003-0.08-0.005-0.12c-0.013-0.317,0.102-0.557,0.345-0.72
			c0.166-0.002,0.249-0.021,0.247-0.062c-0.002-0.039,0.038-0.06,0.122-0.061c0.659-0.166,0.917,0.031,0.775,0.589
			c0.163-0.08,0.348-0.162,0.553-0.245c0.203-0.081,0.469-0.203,0.797-0.367c-0.014-0.317,0.183-0.559,0.593-0.724
			c0.413-0.083,0.738-0.266,0.975-0.549c0.237-0.281,0.474-0.582,0.709-0.904c0.158-0.16,0.367-0.163,0.624-0.007
			c0.159-0.161,0.318-0.322,0.476-0.484c0.123-0.041,0.245-0.083,0.368-0.124c0.209-0.878,0.334-1.737,0.379-2.573
			c0.042-0.837,0.254-1.616,0.636-2.337c0.668-1.601,1.395-3.223,2.179-4.867c0.784-1.642,1.546-3.225,2.289-4.749
			c-0.004-0.079,0.013-0.12,0.055-0.121c0.04-0.001,0.059-0.04,0.055-0.12c-0.006-0.119-0.012-0.239-0.019-0.358
			c-0.004-0.078,0.012-0.138,0.052-0.18c0.038-0.04,0.056-0.1,0.052-0.18c-0.021-0.397,0.007-0.636,0.085-0.718
			c0.125-0.719,0.294-1.417,0.504-2.098c0.209-0.678,0.504-1.262,0.888-1.745c-0.09-0.158-0.181-0.316-0.271-0.474
			c-0.129-0.874,0.053-1.674,0.544-2.397c0.49-0.724,1.042-1.408,1.658-2.055c0.537-1.322,1.071-2.644,1.603-3.967
			c-0.086-0.077-0.095-0.237-0.027-0.478c0.295-0.482,0.558-0.844,0.788-1.087c0.212-0.521,0.424-1.042,0.636-1.563
			c-0.078,0.041-0.157,0.082-0.235,0.123c0.312-0.881,0.624-1.762,0.934-2.643c0.116-0.082,0.233-0.163,0.349-0.245
			c0.177-0.401,0.355-0.802,0.532-1.203c-0.038,0.04-0.076,0.081-0.113,0.121c-0.227,0.242-0.466,0.287-0.718,0.131
			c-0.251-0.155-0.306-0.393-0.163-0.715c0.761-2.082,1.412-4.264,1.953-6.543c0.539-2.279,1.221-4.46,2.043-6.546
			c0.316-1.279,0.718-2.441,1.206-3.486c0.137-0.32,0.295-0.622,0.476-0.904c0.179-0.282,0.34-0.544,0.484-0.785
			c0.137-0.321,0.275-0.642,0.412-0.963c-0.005-0.079-0.011-0.159-0.016-0.238c0.178-0.879,0.456-1.741,0.834-2.584
			c0.376-0.843,0.732-1.704,1.065-2.588c-0.315,0.006-0.554-0.029-0.716-0.107c-0.405-0.152-0.58-0.427-0.528-0.827
			c0.124-0.48,0.71-1.127,1.754-1.943c-0.017-0.239,0.011-0.398,0.084-0.48c0.36-1.6,0.866-3.022,1.522-4.271
			c0.654-1.247,1.242-2.551,1.767-3.917c-0.462,0.089-0.852,0.096-1.167,0.022c-0.318-0.072-0.455-0.35-0.411-0.829
			c0.387-1.122,1.213-2.054,2.48-2.796c0.043-1.513,0.259-2.793,0.644-3.837c-0.003-0.04-0.006-0.079-0.009-0.119
			c-0.024-0.317,0.077-0.519,0.303-0.603c0.226-0.083,0.423-0.008,0.597,0.227c0.076-0.001,0.115-0.021,0.111-0.062
			c-0.003-0.039,0.033-0.06,0.111-0.062c0.077-0.002,0.155-0.003,0.232-0.005c0.145-0.122,0.29-0.245,0.435-0.367
			c0.99-0.179,1.952-0.258,2.882-0.238c0.93,0.022,1.864,0.101,2.804,0.239c0.856,0.062,1.636,0.126,2.338,0.188
			c0.702,0.065,1.364,0.13,1.99,0.194c0.321,0.154,0.513,0.347,0.574,0.585c0.059,0.237-0.099,0.441-0.471,0.608
			c-0.077,0.002-0.155,0.003-0.232,0.005c0.7,0.941,1.212,2.145,1.535,3.612c0.321,1.468,0.716,2.634,1.183,3.499
			c0.487,1.106,1.017,2.229,1.588,3.37c0.572,1.143,1.143,2.266,1.714,3.367c0.077-0.002,0.154-0.022,0.229-0.065
			c0.073-0.041,0.151-0.063,0.229-0.065c0.399,0.071,0.617,0.305,0.653,0.702c0.007,0.079,0.015,0.159,0.022,0.238
			c0.007,0.08-0.008,0.14-0.042,0.181c-0.037,0.042-0.05,0.102-0.042,0.18c-0.146,0.123-0.292,0.246-0.439,0.369
			c0.201,0.473,0.4,0.947,0.602,1.42c0.2,0.474,0.396,0.908,0.591,1.301c0.56,0.943,1.126,1.946,1.7,3.008
			c0.573,1.062,1.15,2.144,1.729,3.246c0.119-0.003,0.238-0.006,0.357-0.009c0.172,0.156,0.243,0.274,0.212,0.354
			c-0.033,0.081-0.041,0.201-0.025,0.359c0.008,0.08-0.009,0.12-0.048,0.121c-0.041,0.001-0.055,0.042-0.048,0.121
			c0.762,1.338,1.45,2.714,2.065,4.134c0.614,1.419,1.27,2.838,1.969,4.255c0.264,0.232,0.365,0.469,0.31,0.709
			c0.817,1.814,1.576,3.607,2.276,5.382c0.699,1.775,1.384,3.572,2.053,5.387c0.161-0.004,0.322-0.009,0.483-0.013
			c0.33,0.072,0.521,0.345,0.569,0.822c0.008,0.08-0.025,0.161-0.097,0.241c-0.073,0.082-0.124,0.183-0.151,0.303
			c-0.03,0.12-0.08,0.222-0.152,0.303c0.513,1.461,1.027,2.923,1.543,4.384c0.036-0.041,0.073-0.082,0.109-0.122
			c0.061,0.198,0.122,0.395,0.183,0.593c0.004,0.04,0.008,0.079,0.012,0.119c0.95-0.265,1.642-0.242,2.082,0.063
			c0.277,0.312,0.306,0.59,0.087,0.835c-0.324,0.408-0.648,0.815-0.973,1.223c0.102,0.197,0.204,0.393,0.305,0.59
			c0.154-0.083,0.402-0.05,0.745,0.099c0.025,0.239,0.126,0.436,0.306,0.589c0.269,0.232,0.374,0.468,0.319,0.709
			c0.933,1.888,1.8,3.897,2.602,6.028c0.801,2.13,1.726,4.219,2.773,6.261c0.042-0.001,0.083-0.002,0.124-0.004
			c0.054,0.118,0.108,0.236,0.162,0.354c-0.041,0.001-0.082,0.002-0.123,0.004c0.333,0.788,0.69,1.416,1.072,1.883
			c0.037-0.041,0.074-0.082,0.112-0.123c0.362,0.667,0.725,1.335,1.089,2.002c0.911,1.489,2.007,2.774,3.295,3.852
			c0.157-0.084,0.314-0.169,0.471-0.253c0.645-0.178,0.916,0.014,0.814,0.574c0.009,0.08,0.055,0.118,0.138,0.115
			c-0.116,0.083-0.231,0.167-0.347,0.25c-0.037,0.041-0.074,0.082-0.111,0.123c0.184,0.154,0.368,0.308,0.553,0.462
			c0.396-0.17,0.71-0.339,0.942-0.507c0.231-0.166,0.422-0.291,0.581-0.376c0.387-0.251,0.66-0.238,0.816,0.035
			c0.157,0.276,0.129,0.576-0.083,0.9c0.041-0.001,0.083-0.003,0.124-0.004c-0.074,0.083-0.194,0.125-0.36,0.13
			c-0.185,0.205-0.37,0.41-0.555,0.615c0.536,0.303,1.315,0.558,2.341,0.766c0.083-0.002,0.124-0.022,0.119-0.063
			c-0.005-0.039,0.034-0.061,0.118-0.063c0.082-0.003,0.142-0.023,0.18-0.065c0.036-0.04,0.096-0.063,0.18-0.065
			c0.349,0.15,0.537,0.304,0.556,0.461c0.175,0.075,0.388,0.107,0.637,0.1c0.435,0.147,0.645,0.339,0.633,0.578
			c-0.014,0.24-0.22,0.446-0.616,0.618c0.185,0.155,0.297,0.391,0.334,0.707c0.042,0.358,0.085,0.715,0.127,1.073
			c0.449-0.094,0.899-0.187,1.348-0.281c0.341,0.07,0.543,0.342,0.6,0.819c-0.12,0.402-0.217,0.644-0.289,0.727
			c-0.075,0.081-0.312,0.208-0.709,0.381c-0.125,0.004-0.25,0.008-0.375,0.012c0.214,0.392,0.042,0.717-0.514,0.973
			c-0.67,0.021-2.03,0.042-4.082,0.065c-2.054,0.02-4.334,0.048-6.847,0.081c-2.511,0.03-5.069,0.041-7.667,0.032
			c-2.599-0.011-4.742-0.076-6.428-0.191c-0.084,0.002-0.122,0.042-0.114,0.122c-0.494,0.091-1.007,0.204-1.539,0.337
			c-0.533,0.133-1.091,0.207-1.675,0.221c-0.107,0.202-0.214,0.404-0.321,0.606c-0.405,0.168-0.707,0.057-0.911-0.337
			c-0.544-1.343-0.911-2.608-1.102-3.799c-0.084,0.002-0.167,0.004-0.251,0.006c-0.264-0.152-0.429-0.349-0.492-0.586
			c-0.065-0.238,0.023-0.437,0.257-0.604c0.629-0.413,1.457-0.693,2.488-0.838c1.028-0.145,1.682-0.499,1.962-1.065
			c0.112-0.56,0.096-1.157-0.047-1.793c-0.4,0.171-0.691,0.178-0.871,0.022c-0.355-0.23-0.426-0.546-0.215-0.951
			c0.15-0.162,0.383-0.327,0.701-0.496c0.041-0.001,0.083-0.002,0.124-0.003c-0.378-1.345-0.986-2.923-1.819-4.738
			c-0.331,0.008-0.581-0.025-0.753-0.101c-0.346-0.151-0.529-0.346-0.551-0.584c-0.052-0.556,0.016-1.155,0.204-1.799
			c-0.533-1.261-1.119-2.484-1.763-3.664c-0.644-1.18-1.214-2.242-1.709-3.187c0.029,0.319-0.095,0.54-0.371,0.667
			c-0.277,0.126-0.514-0.007-0.713-0.402c-0.147-0.714-0.452-1.365-0.913-1.951c-0.464-0.587-0.847-1.236-1.155-1.946
			c-0.892,0.101-1.825,0.162-2.804,0.184c-0.979,0.022-1.918,0.043-2.815,0.062c-0.238,0.086-0.562,0.131-0.969,0.141
			c-0.204,0.004-0.408,0.009-0.612,0.013c-3.985,0.245-7.972,0.484-11.961,0.718c-1.545,0.109-3.009,0.234-4.388,0.379
			c-1.382,0.144-2.856,0.109-4.422-0.104c0.173,0.158,0.106,0.398-0.199,0.72c-0.308,0.324-0.568,0.726-0.783,1.208
			c-0.057,0.4-0.158,0.761-0.301,1.08c-0.146,0.322-0.287,0.683-0.425,1.083c0.01,0.16,0,0.34-0.028,0.538
			c-0.03,0.2-0.038,0.38-0.028,0.538C271.328,163.345,271.251,163.426,271.174,163.507z M297.19,144.959
			c-0.067,0.162-0.18,0.264-0.338,0.306c-0.159,0.045-0.329-0.052-0.509-0.287c-0.176-0.155-0.269-0.312-0.283-0.472
			c-0.128-0.077-0.256-0.154-0.384-0.231c-0.289-0.55-0.576-1.082-0.861-1.595c-0.286-0.512-0.533-1.044-0.739-1.598
			c-0.007-0.078-0.032-0.137-0.075-0.177c-0.045-0.038-0.068-0.097-0.075-0.178c-0.595-1.341-1.085-2.885-1.469-4.63
			c-0.19-0.355-0.379-0.709-0.569-1.064c-0.24,0.005-0.404-0.031-0.489-0.109c-0.043-0.039-0.086-0.078-0.13-0.117
			c-1.184-1.727-2.102-3.739-2.763-6.038c-0.565-1.103-1.172-2.226-1.816-3.369c-0.645-1.141-0.927-2.232-0.848-3.27
			c-0.19-0.394-0.378-0.788-0.567-1.184c-0.189-0.394-0.338-0.789-0.446-1.186c-0.092-0.157-0.149-0.395-0.173-0.714
			c-0.057,0.28-0.115,0.56-0.173,0.84c0.169,0.157,0.108,0.397-0.183,0.721c0.039-0.001,0.079-0.002,0.118-0.002
			c-0.147,0.163-0.259,0.244-0.337,0.245c-0.036,0.041-0.073,0.081-0.109,0.122c-0.408,0.884-0.817,1.769-1.227,2.653
			c-0.058,0.28-0.117,0.56-0.175,0.84c0.009,0.119,0.018,0.239,0.027,0.358c-0.037,0.041-0.073,0.081-0.11,0.122
			c0.04-0.001,0.079-0.002,0.119-0.002c-0.073,0.081-0.147,0.162-0.22,0.243c-0.157,0.561-0.315,1.122-0.472,1.683
			c-0.135,0.321-0.271,0.643-0.406,0.964c0.006,0.08-0.032,0.12-0.11,0.121c0.017,0.239-0.042,0.52-0.178,0.84
			c0.006,0.08,0.028,0.119,0.069,0.118c0.039-0.001,0.062,0.04,0.068,0.118c-0.132,0.402-0.263,0.782-0.396,1.143
			c-0.135,0.361-0.305,0.743-0.516,1.145c-0.111,0.122-0.222,0.243-0.333,0.365c-0.185,0.76-0.371,1.521-0.557,2.281
			c0.08-0.001,0.16-0.003,0.24-0.004c0.324,0.074,0.505,0.349,0.539,0.826c-0.046,0.479-0.195,0.92-0.446,1.323
			c-0.254,0.404-0.565,0.808-0.938,1.213c0.003,0.04,0.006,0.08,0.008,0.119c-0.17,0.441-0.339,0.883-0.509,1.324
			c0.257,0.234,0.235,0.515-0.062,0.837c-0.075,0.082-0.193,0.123-0.354,0.126c0.005,0.08-0.011,0.14-0.048,0.18
			c-0.039,0.042-0.053,0.102-0.048,0.18c0.165,0.078,0.343,0.313,0.532,0.708c0.04-0.001,0.08-0.001,0.12-0.002
			c-0.035,0.08-0.069,0.16-0.104,0.241c-0.123,0.561-0.328,1.102-0.613,1.625c-0.287,0.524-0.532,1.066-0.736,1.626
			c0.003,0.04,0.005,0.08,0.008,0.12c-0.04,0.001-0.081,0.002-0.121,0.002c-0.097,0.36-0.193,0.72-0.29,1.081
			c0.016,0.238-0.015,0.4-0.09,0.48c0.005,0.08,0.028,0.119,0.069,0.118c0.041-0.001,0.064,0.04,0.07,0.118
			c1.141,0.141,2.271,0.1,3.388-0.121c1.116-0.218,2.321-0.342,3.613-0.367c0.254,0.155,0.384,0.273,0.39,0.351
			c1.043-0.099,2.049-0.178,3.016-0.239c0.966-0.058,1.934-0.099,2.903-0.119c1.832-0.356,3.837-0.559,6.018-0.608
			c0.328,0.073,0.514,0.347,0.555,0.825c0.007,0.079,0.014,0.159,0.02,0.238c-0.444,0.488-0.805,0.537-1.081,0.143
			c-0.081,0.002-0.161,0.004-0.242,0.005C295.973,145.862,296.582,145.411,297.19,144.959z"/>
	</g>
</g>
<g>
	<g>
		<path fill="#5ECAE8" d="M105.895,205.343c0.522,0.553,0.864,1.255,1.024,2.109c0.16,0.855,0.535,1.559,1.126,2.11
			c0.221,0.207,0.443,0.414,0.664,0.622c-0.335,0.201-0.387,0.439-0.162,0.714c0.61,0.859,1.218,1.719,1.826,2.578
			c0.155,0.276,0.328,0.551,0.519,0.825c0.189,0.276,0.36,0.516,0.512,0.722c0.004,0.068,0.075,0.103,0.214,0.105
			c0.076,0.137,0.154,0.257,0.23,0.361c0.075,0.102,0.151,0.223,0.229,0.36c0.009,0.138,0.03,0.223,0.068,0.256
			c0.036,0.035,0.057,0.087,0.062,0.155c0.603,0.825,1.138,1.667,1.605,2.524c0.466,0.859,0.794,1.732,0.987,2.619
			c0.073,0.069,0.146,0.138,0.219,0.207c0.036,0.034,0.073,0.068,0.109,0.103c0.665,0.759,1.152,1.445,1.465,2.062
			c0.137,0.001,0.277,0.071,0.424,0.21c0.002,0.034,0.004,0.068,0.006,0.102c0.008,0.138,0.048,0.24,0.122,0.309
			c0.31,0.617,0.675,1.252,1.09,1.904c0.415,0.653,0.812,1.287,1.191,1.905c0.136,0.001,0.277,0.072,0.423,0.21
			c0.072,0.069,0.113,0.172,0.121,0.308c0.008,0.137,0.016,0.273,0.024,0.41c0.072,0.069,0.145,0.137,0.217,0.206
			c0.072,0.07,0.143,0.104,0.212,0.105c0.074,0.103,0.149,0.206,0.223,0.31c0.079,0.205,0.223,0.309,0.428,0.311
			c0.147,0.172,0.293,0.344,0.439,0.516c0.002,0.034,0.004,0.068,0.006,0.102c0.335,0.481,0.67,0.962,1.005,1.443
			c0.336,0.515,0.673,1.03,1.008,1.544c0.028-0.102,0.057-0.204,0.085-0.305c0.004,0.068,0.039,0.102,0.108,0.103
			c0.019,0.343,0.139,0.65,0.359,0.925c-0.095,0.135-0.189,0.271-0.284,0.406c0.144,0.139,0.22,0.275,0.227,0.411
			c0.22,0.275,0.439,0.533,0.656,0.775c0.218,0.241,0.401,0.499,0.554,0.773c0.068,0.001,0.136,0.001,0.204,0.002
			c0.183,0.24,0.367,0.481,0.55,0.721c0.166,0.549,0.433,1.096,0.804,1.645c0.369,0.55,0.736,1.065,1.102,1.545
			c0.303,0.617,0.607,1.217,0.91,1.798c0.301,0.583,0.705,1.15,1.208,1.7c0.07,0.069,0.174,0.104,0.31,0.105
			c0.221,0.344,0.423,0.653,0.607,0.926c0.183,0.275,0.384,0.55,0.601,0.824c0.193-0.203,0.322-0.304,0.391-0.304
			c0.034,0,0.068,0.001,0.102,0.001c0.032-0.033,0.064-0.067,0.096-0.1c-0.007-0.137,0.002-0.272,0.03-0.409
			c0.027-0.135,0.037-0.271,0.03-0.408c-0.002-0.034-0.003-0.068-0.005-0.102c-0.01-0.204-0.038-0.409-0.082-0.614
			c-0.045-0.204-0.072-0.409-0.082-0.614c-0.068-0.001-0.118,0.017-0.15,0.05c-0.033,0.035-0.083,0.05-0.15,0.049
			c-0.017-0.341-0.053-0.699-0.105-1.075c-0.054-0.374-0.057-0.767-0.009-1.176c-0.035-0.681-0.096-1.193-0.18-1.535
			c-0.457-0.958-0.699-2.359-0.725-4.2c-0.028-1.841,0.058-3.51,0.255-5.009c-0.072-0.069-0.144-0.137-0.216-0.206
			c-0.019-0.375-0.038-0.75-0.058-1.125c-0.024-0.476-0.066-0.937-0.122-1.382c-0.058-0.443-0.064-0.904-0.02-1.382
			c-0.073-1.432-0.147-2.864-0.22-4.297c-0.21-0.069-0.256-0.275-0.134-0.615c0.093-0.204,0.186-0.407,0.278-0.611
			c-0.07-0.001-0.107-0.068-0.114-0.206c-0.007-0.136-0.032-0.272-0.073-0.409c-0.042-0.136-0.066-0.272-0.073-0.409
			c-0.002-1.363-0.004-2.762-0.007-4.193c-0.005-1.432-0.214-2.83-0.63-4.199c-0.021-0.409-0.042-0.819-0.063-1.228
			c0.04-0.544,0.066-1.055,0.078-1.533c0.009-0.476,0.069-0.987,0.182-1.532c-0.401-1.027-0.626-2.052-0.678-3.075
			c-0.074-0.068-0.115-0.206-0.126-0.411c-0.059-1.159-0.16-2.42-0.299-3.786c-0.141-1.364-0.066-2.624,0.225-3.782
			c-0.007-0.136-0.084-0.272-0.231-0.411c-0.547,0.268-1.029,0.399-1.448,0.395c-0.105-0.001-0.21-0.002-0.314-0.003
			c-0.626,0.063-1.187,0.057-1.679-0.017c-0.071-0.001-0.103,0.035-0.1,0.101c-0.133,0.136-0.289,0.169-0.466,0.098
			c-0.179-0.069-0.307-0.172-0.384-0.31c-0.17-0.547-0.361-1.163-0.572-1.847c-0.213-0.683-0.085-1.228,0.384-1.632
			c-0.009-0.171-0.018-0.341-0.028-0.511c-0.078-0.137-0.089-0.341-0.033-0.614c0.135-0.101,0.27-0.202,0.405-0.303
			c1.228,0.013,2.456,0.025,3.684,0.037c-0.004-0.067,0.06-0.169,0.195-0.304c-0.002-0.034-0.004-0.068-0.005-0.102
			c0.175,0.002,0.351,0.003,0.526,0.005c1.685,0.016,3.235,0.168,4.653,0.452c0.351,0.003,0.702,0.006,1.052,0.009
			c-0.033,0.034-0.067,0.068-0.1,0.102c0.456,0.004,0.912,0.008,1.368,0.012c0.067-0.068,0.134-0.135,0.201-0.203
			c-0.002-0.034-0.003-0.068-0.005-0.103c0.07,0.001,0.141,0.001,0.211,0.002c0.664-0.062,1.327-0.124,1.991-0.187
			c0.211,0.002,0.383-0.031,0.522-0.098c0.035,0,0.07,0.001,0.105,0.001c0.002,0.034,0.003,0.068,0.005,0.102
			c0.035,0,0.07,0.001,0.105,0.001c0.561,0.005,1.158-0.007,1.788-0.037c0.63-0.028,1.222-0.108,1.779-0.241
			c0.283,0.071,0.433,0.277,0.447,0.617c0.069-0.034,0.137-0.067,0.206-0.101c0.143,0.071,0.288,0.207,0.438,0.413
			c0.034-0.034,0.067-0.068,0.101-0.102c0.128-0.271,0.336-0.338,0.623-0.2c0.146,0.139,0.222,0.275,0.228,0.412
			c0.034,0.818,0.067,1.636,0.101,2.455c0.009,0.205,0.087,0.445,0.239,0.718c0.08,0.274-0.014,0.546-0.281,0.816
			c0.003,0.068,0.006,0.136,0.008,0.204c-0.397,0.544-0.712,0.542-0.945-0.007c-0.003-0.066-0.023-0.118-0.059-0.154
			c-0.038-0.033-0.056-0.085-0.058-0.154c-0.351-0.003-0.7,0.012-1.048,0.042c-0.35,0.032-0.698,0.046-1.047,0.043
			c-0.141-0.001-0.314,0.015-0.523,0.046c-0.208,0.033-0.384,0.014-0.527-0.055c-0.35-0.003-0.7-0.006-1.049-0.009
			c0.125,0.444,0.249,0.888,0.374,1.332c0.015,0.343,0.045,0.649,0.093,0.922c0.047,0.274,0.078,0.58,0.093,0.921
			c-0.134,0.136-0.199,0.238-0.196,0.306c-0.055,0.341-0.067,0.852-0.037,1.533c-0.033,0.034-0.066,0.068-0.1,0.102
			c0.002,0.034,0.003,0.068,0.005,0.102c-0.28,1.566-0.428,3.286-0.448,5.16c-0.02,1.876,0.178,3.599,0.596,5.17
			c0.03,0.682,0.076,1.348,0.141,1.995c0.063,0.649,0.144,1.314,0.244,1.996c-0.067,0.069-0.169,0.101-0.306,0.1
			c0.003,0.068-0.012,0.12-0.045,0.153c-0.034,0.035-0.046,0.119-0.04,0.255c0.101-0.067,0.201-0.134,0.302-0.201
			c0.015,0.341,0.03,0.682,0.046,1.023c-0.066,0.068-0.168,0.101-0.306,0.1c0.006,0.138,0.029,0.273,0.07,0.409
			c0.04,0.138,0.064,0.274,0.07,0.409c0.038,0.069,0.075,0.137,0.113,0.206c0.087,0.41,0.174,0.82,0.262,1.23
			c-0.282,1.429-0.301,2.912-0.059,4.448c0.239,1.536,0.597,2.988,1.068,4.355c0.015,0.342-0.006,0.664-0.06,0.971
			c-0.055,0.306-0.144,0.629-0.265,0.969c0.002,0.034,0.003,0.068,0.005,0.102c0.206,0.002,0.313,0.105,0.322,0.31
			c0.006,0.138,0.083,0.342,0.233,0.616c-0.226,1.089-0.207,2.283,0.055,3.579c0.006,0.138-0.007,0.24-0.038,0.307
			c-0.032,0.068-0.045,0.137-0.042,0.205c0.037,0.068,0.074,0.137,0.112,0.205c0.003,0.069,0.022,0.138,0.06,0.205
			c0.037,0.068,0.057,0.138,0.06,0.205c0.026,0.58,0.051,1.159,0.077,1.739c0.003,0.068-0.029,0.136-0.093,0.203
			c0.009,0.205,0.018,0.409,0.027,0.614c0.033-0.034,0.065-0.068,0.098-0.102c0.083,1.876,0.165,3.752,0.248,5.628
			c-0.065,0.067-0.13,0.135-0.195,0.202c0.03,0.683,0.018,1.194-0.033,1.534c0.012,0.273,0.038,0.511,0.082,0.716
			c0.042,0.205,0.071,0.445,0.083,0.717c0.033,0.75,0.066,1.5,0.1,2.251c0.069,1.57,0.19,3.156,0.362,4.759
			c0.171,1.603,0.293,3.224,0.365,4.861c0.009,0.204-0.051,0.375-0.179,0.51c0.012,0.273,0.024,0.546,0.036,0.819
			c-0.096,0.101-0.192,0.203-0.288,0.304c0.006,0.136,0.012,0.273,0.018,0.409c0.032-0.034,0.064-0.068,0.096-0.102
			c0.067,0.001,0.134,0.001,0.201,0.002c0.104,0.069,0.207,0.138,0.311,0.207c0.003,0.069,0.02,0.102,0.055,0.103
			c0.033,0,0.052,0.036,0.055,0.103c0.009,0.205,0.018,0.409,0.027,0.614c0.273,0.14,0.418,0.379,0.433,0.719
			c0.003,0.069-0.057,0.239-0.178,0.511c-0.126,0.203-0.255,0.304-0.389,0.303c0.003,0.069-0.013,0.103-0.046,0.102
			c-0.035-0.001-0.048,0.035-0.045,0.102c0.002,0.034,0.003,0.068,0.005,0.102c0.003,0.068,0.07,0.102,0.205,0.103
			c0.416,0.344,0.295,0.65-0.361,0.918c-1.135,0.058-2.436,0.115-3.904,0.17c-1.469,0.054-2.784-0.196-3.948-0.751
			c-0.167-0.002-0.335-0.003-0.502-0.005c0.01,0.204-0.048,0.373-0.175,0.51c-0.128,0.135-0.329,0.132-0.602-0.006
			c-0.146-0.24-0.292-0.48-0.437-0.72c-0.402-0.004-0.511-0.175-0.327-0.514c-0.114-0.274-0.229-0.548-0.343-0.822
			c-0.143-0.172-0.286-0.344-0.428-0.515c-0.035-0.035-0.07-0.069-0.105-0.103c-1.394-1.036-2.202-2.374-2.423-4.012
			c-0.004-0.068-0.007-0.136-0.011-0.204c-0.115-0.274-0.231-0.548-0.346-0.822c-0.216-0.274-0.474-0.686-0.771-1.235
			c-0.073-0.103-0.146-0.206-0.219-0.309c-0.035-0.035-0.071-0.069-0.106-0.104c-0.714-0.756-1.349-1.599-1.905-2.525
			c-0.556-0.927-1.136-1.938-1.737-3.035c-0.004-0.067-0.024-0.118-0.059-0.154c-0.037-0.034-0.055-0.085-0.059-0.154
			c-0.004-0.067-0.041-0.103-0.107-0.104c-0.004-0.067-0.042-0.136-0.113-0.206c-0.591-0.892-1.182-1.785-1.775-2.677
			c-0.064,0.068-0.236,0.033-0.514-0.108c-0.371-0.548-0.747-1.2-1.129-1.956c-0.151-0.274-0.303-0.548-0.454-0.822
			c-0.072-0.068-0.112-0.171-0.12-0.309c-0.335-0.515-0.671-1.03-1.007-1.545c-0.128,0.136-0.266,0.1-0.413-0.107
			c-0.374-0.584-0.749-1.167-1.124-1.751c-0.204-0.003-0.316-0.172-0.337-0.515c-0.034,0-0.068-0.001-0.102-0.001
			c-0.416-0.14-0.502-0.414-0.254-0.821c-0.225-0.342-0.435-0.72-0.63-1.132c-0.195-0.411-0.374-0.822-0.535-1.233
			c-0.008-0.136-0.048-0.205-0.115-0.205c-0.008-0.136-0.085-0.273-0.23-0.411c-0.113-0.172-0.226-0.344-0.338-0.516
			c-0.343-0.583-0.686-1.167-1.029-1.75c-0.073-0.067-0.111-0.137-0.115-0.205c-0.414-0.618-0.829-1.237-1.244-1.855
			c-0.444-0.55-0.875-1.118-1.287-1.703c-0.414-0.583-0.812-1.185-1.194-1.803c-0.037-0.035-0.073-0.069-0.11-0.104
			c-0.004-0.068-0.009-0.137-0.013-0.205c-0.225-0.309-0.451-0.619-0.676-0.928c-0.206-0.003-0.38-0.038-0.522-0.109
			c-0.46-0.755-0.888-1.509-1.281-2.265c-0.394-0.755-0.787-1.508-1.18-2.264c-0.039-0.069-0.078-0.138-0.117-0.206
			c-0.139-0.002-0.244-0.036-0.317-0.106c-0.308-0.48-0.631-0.943-0.971-1.393c-0.34-0.446-0.598-0.943-0.773-1.492
			c-0.416-0.551-0.833-1.101-1.25-1.652c-0.207-0.003-0.383-0.038-0.525-0.109c-0.591-0.552-1.202-1.412-1.836-2.58
			c-0.636-1.167-1.23-2.231-1.782-3.194c-0.012-0.171-0.024-0.341-0.036-0.512c-0.343-0.448-0.687-0.896-1.031-1.343
			c0.066,0.921,0.132,1.843,0.198,2.764c0.173,0.002,0.346,0.005,0.519,0.007c0.568,0.212,0.66,0.52,0.274,0.923
			c-0.135,0.067-0.25,0.134-0.349,0.2c-0.099,0.067-0.215,0.135-0.349,0.199c0.071,0.989,0.142,1.979,0.213,2.968
			c-0.032,0.034-0.064,0.067-0.096,0.101c0.122,0.753,0.225,1.47,0.31,2.151c0.083,0.684,0.116,1.399,0.102,2.149
			c-0.037,1.397-0.074,2.793-0.111,4.189c0.032-0.033,0.064-0.067,0.096-0.1c0.002,0.034,0.005,0.068,0.007,0.102
			c0.221,0.208,0.338,0.414,0.353,0.618c0.029,0.41,0.059,0.819,0.088,1.228c0.029,0.41,0.127,0.82,0.294,1.231
			c0.024,0.341,0.049,0.682,0.073,1.023c-0.029,0.068-0.058,0.136-0.088,0.204c-0.01,0.818-0.067,1.704-0.168,2.656
			c-0.103,0.954-0.019,1.875,0.25,2.765c-0.044,0.341-0.055,0.663-0.033,0.971c0.022,0.307,0.045,0.632,0.07,0.971
			c0.007,0.103,0.015,0.205,0.022,0.308c0.044,0.614,0.105,1.229,0.184,1.843c0.078,0.615,0.173,1.229,0.285,1.844
			c0.067,0.001,0.176,0.104,0.328,0.311c0.344,1.027,0.566,2.224,0.663,3.587c0.014,0.205-0.042,0.375-0.167,0.509
			c-0.127,0.136-0.259,0.167-0.399,0.097c-0.026,0.579-0.052,1.158-0.078,1.737c0.015,0.205,0.029,0.409,0.044,0.614
			c0.144,0.14,0.225,0.309,0.24,0.514c0.034,0.478,0.049,0.92,0.045,1.33c-0.005,0.409-0.024,0.852-0.056,1.328
			c0.031-0.034,0.062-0.067,0.094-0.101c0.039,0.546,0.078,1.092,0.118,1.638c0.174,0.548,0.213,1.093,0.118,1.637
			c0.027,0.375,0.054,0.75,0.081,1.126c0.072,0.069,0.145,0.138,0.217,0.208c0.193,0.82,0.21,1.536,0.053,2.147
			c0.061,0.376,0.121,0.751,0.182,1.127c0.005,0.068,0.024,0.12,0.061,0.154c0.035,0.036,0.059,0.121,0.068,0.256
			c0.258-0.132,0.489-0.197,0.691-0.195c0.031-0.034,0.062-0.067,0.094-0.101c0.336,0.004,0.671,0.009,1.007,0.013
			c0.263-0.064,0.511-0.111,0.745-0.143c0.232-0.031,0.516-0.045,0.853-0.04c0.268,0.004,0.41,0.108,0.424,0.313
			c0.209,0.105,0.417,0.21,0.625,0.314c0.211,0.14,0.272,0.294,0.182,0.463c-0.089,0.17-0.229,0.321-0.421,0.455
			c-0.034,0-0.067-0.001-0.101-0.001c0.094,0.41,0.14,0.819,0.135,1.228c-0.006,0.41,0.039,0.819,0.135,1.229
			c0.071,0.07,0.115,0.206,0.129,0.411c0.005,0.068,0.009,0.136,0.014,0.204c-0.062,0.067-0.125,0.135-0.187,0.202
			c0.012,0.171,0.024,0.341,0.035,0.512c-0.182,0.269-0.412,0.335-0.688,0.196c0.002,0.034,0.005,0.068,0.007,0.102
			c-0.034,0-0.067-0.001-0.101-0.001c-0.321,0.201-0.588,0.197-0.803-0.011c-0.536-0.008-1.17,0.001-1.903,0.026
			c-0.735,0.023-1.501,0.047-2.301,0.071c-0.8,0.022-1.62,0.028-2.455,0.017c-0.837-0.012-1.592-0.057-2.266-0.135
			c-0.464,0.061-0.995,0.088-1.598,0.079c-0.602-0.009-1.239-0.018-1.907-0.028c-0.1-0.001-0.201-0.003-0.301-0.004
			c-0.229,0.065-0.458,0.13-0.686,0.195c-0.005-0.068-0.011-0.137-0.016-0.205c-0.067-0.001-0.134-0.002-0.201-0.003
			c-0.432,0.028-0.864,0.055-1.297,0.083c-0.123,0.134-0.246,0.269-0.368,0.403c0.003,0.034,0.005,0.068,0.008,0.103
			c-0.033,0-0.067-0.001-0.1-0.002c-0.031,0.034-0.061,0.067-0.092,0.101c-0.457,0.129-0.702-0.011-0.735-0.42
			c-0.003-0.034-0.006-0.068-0.008-0.103c-0.265,0.03-0.53,0.06-0.794,0.09c-0.1-0.002-0.201-0.003-0.301-0.005
			c-0.173,0.337-0.454,0.571-0.844,0.702c-0.103-0.035-0.206-0.071-0.309-0.106c-0.447-0.554-0.735-1.205-0.864-1.956
			c-0.129-0.751-0.222-1.468-0.278-2.151c-0.023-0.272,0.127-0.475,0.452-0.606c0.726-0.125,1.453-0.25,2.18-0.376
			c0.375-0.335,0.86-0.548,1.456-0.642c0.596-0.093,1.164-0.1,1.708-0.025c0.126-0.101,0.252-0.201,0.379-0.302
			c0.033,0.001,0.067,0.001,0.1,0.002c-0.102-1.296-0.204-2.593-0.306-3.889c-0.005-0.067,0.053-0.169,0.178-0.305
			c0.031-0.034,0.062-0.067,0.093-0.101c-0.016-0.204,0.004-0.373,0.061-0.51c-0.008-0.102-0.016-0.204-0.024-0.307
			c-0.073-0.069-0.145-0.139-0.218-0.208c-0.115-1.467-0.23-2.934-0.346-4.401c-0.068-0.001-0.107-0.069-0.118-0.207
			c-0.1-0.41-0.229-0.975-0.386-1.692c-0.158-0.718-0.287-1.487-0.385-2.306c-0.1-0.82-0.163-1.62-0.19-2.405
			c-0.029-0.784,0.038-1.447,0.199-1.99c-0.271-1.707-0.539-3.382-0.803-5.022c-0.267-1.64-0.502-3.313-0.704-5.019
			c-0.074-0.068-0.085-0.206-0.032-0.41c-0.003-0.034-0.005-0.068-0.008-0.102c-0.086-1.091-0.171-2.165-0.255-3.224
			c-0.084-1.057-0.138-2.165-0.161-3.325c-0.019-0.239-0.038-0.478-0.057-0.717c-0.551-0.008-0.93-0.047-1.143-0.12
			c-0.281-0.071-0.403-0.312-0.367-0.72c0.174-0.407,0.605-1.014,1.299-1.821c-0.008-0.103-0.016-0.205-0.024-0.308
			c-0.069-0.001-0.138-0.002-0.207-0.003c-0.356-0.141-0.512-0.381-0.47-0.723c0.225-0.609,0.492-1.15,0.801-1.623
			c-0.005-0.067,0.044-0.305,0.151-0.713c-0.403,0.131-0.624-0.043-0.662-0.522c0.132-0.951,0.158-2.127,0.084-3.525
			c-0.077-1.398-0.243-2.848-0.5-4.352c-0.07-0.001-0.121,0.016-0.152,0.048c-0.033,0.035-0.084,0.05-0.152,0.049
			c-0.475,0.13-0.786,0.141-0.933,0.037c-0.148-0.105-0.179-0.292-0.097-0.563c0.083-0.271,0.232-0.559,0.452-0.862
			c0.218-0.304,0.424-0.556,0.616-0.758c-0.285-1.844-0.513-3.619-0.682-5.325c-0.171-1.705-0.128-3.136,0.132-4.292
			c-0.008-0.103-0.016-0.205-0.024-0.308c-0.162-0.274-0.245-0.446-0.251-0.515c-0.075-0.068-0.115-0.137-0.121-0.206
			c-0.216-0.071-0.603-0.111-1.163-0.12c-1.147,0.529-2.109,0.496-2.891-0.096c-0.782-0.59-1.053-1.532-0.808-2.823
			c0.097-0.101,0.194-0.202,0.29-0.303c-0.006-0.068-0.011-0.136-0.017-0.204c0.032-0.034,0.065-0.067,0.097-0.101
			c-0.017-0.205-0.034-0.409-0.05-0.614c0.112-0.339,0.239-0.49,0.383-0.454c0.143,0.037,0.292,0.158,0.45,0.365
			c0.1-0.067,0.199-0.133,0.299-0.2c0.145,0.071,0.359,0.108,0.64,0.112c0.965-0.189,1.976-0.276,3.029-0.261
			c1.053,0.016,2.069,0.031,3.053,0.045c0.456,0.007,0.913,0.013,1.369,0.02c0.073,0.035,0.145,0.07,0.218,0.106
			c0.003,0.034,0.005,0.068,0.008,0.102c0.456,0.007,0.913,0.013,1.369,0.019c0.14,0.002,0.277-0.029,0.413-0.096
			c0.551-0.129,0.896-0.192,1.038-0.19c0.29,0.142,0.439,0.246,0.443,0.312c0.28,0.004,0.526-0.008,0.733-0.041
			c0.208-0.03,0.452-0.044,0.733-0.041c0.13-0.135,0.343-0.098,0.639,0.11c-0.035-0.001-0.07-0.001-0.105-0.001
			c0.22,0.141,0.284,0.295,0.191,0.463c-0.093,0.169-0.239,0.322-0.44,0.454c-0.282-0.004-0.543,0.01-0.786,0.04
			c-0.244,0.032-0.505,0.045-0.785,0.041c-0.2,0.133-0.401,0.267-0.601,0.4c0.069,0.001,0.123,0.019,0.161,0.053
			c0.037,0.036,0.126,0.054,0.267,0.055c0.069,0.001,0.179,0.071,0.331,0.208c0.145,0.071,0.228,0.243,0.248,0.515
			c0.002,0.034,0.005,0.068,0.007,0.102c0.798-0.568,1.597-1.137,2.397-1.705c0.002,0.034,0.005,0.068,0.007,0.103
			c0.135-0.065,0.311-0.063,0.527,0.007c0.8,0.42,1.441,1.059,1.922,1.917c0.48,0.86,0.923,1.7,1.331,2.523
			c0.147,0.104,0.294,0.208,0.441,0.312c-0.032,0.034-0.065,0.067-0.097,0.101c0.606,0.69,1.04,1.411,1.301,2.164
			c0.005,0.069,0.041,0.103,0.112,0.104c0.024,0.343-0.067,0.545-0.272,0.61c0.301,0.346,0.502,0.722,0.6,1.132
			c0.105,0.001,0.209,0.003,0.314,0.004c0.665,0.555,1.307,1.312,1.93,2.274C105.177,203.427,105.624,204.386,105.895,205.343z
			 M92.534,192.385c-0.035,0-0.07-0.001-0.105-0.001c0.068-0.033,0.135-0.066,0.203-0.1
			C92.561,192.283,92.529,192.318,92.534,192.385z"/>
		<path fill="#5ECAE8" d="M165.771,246.788c-0.121,0.546-0.337,1.261-0.649,2.144c-0.313,0.885-0.623,1.805-0.932,2.757
			c-0.114,0.75-0.296,1.447-0.544,2.093c-0.251,0.647-0.464,1.345-0.644,2.093c-0.084,0.545-0.168,1.09-0.252,1.636
			c0.002,0.068,0.004,0.136,0.006,0.204c-0.033,0.034-0.065,0.068-0.098,0.102c-0.057,0.342-0.13,0.681-0.22,1.021
			c-0.09,0.342-0.198,0.682-0.321,1.022c0.148,0.478,0.376,0.769,0.681,0.873c0.306,0.103,0.724,0.157,1.263,0.16
			c0.129-0.135,0.361-0.203,0.697-0.201c0.136,0.069,0.273,0.138,0.409,0.207c0.001,0.034,0.002,0.068,0.003,0.102
			c0.133,0.001,0.27,0.103,0.411,0.309c0.078,0.409,0.091,0.854,0.038,1.33c0.002,0.068-0.032,0.102-0.098,0.102
			c0.003,0.102,0.006,0.204,0.009,0.306c-0.256,0.407-0.487,0.509-0.694,0.304c-0.734,0.064-1.469,0.128-2.203,0.191
			c-0.464,0.133-0.98,0.25-1.544,0.349c-0.567,0.099-1.12,0.078-1.658-0.061c-2.133,0.258-4.248,0.466-6.349,0.622
			c-2.1,0.155-3.995,0.022-5.684-0.4c-0.345-0.276-0.423-0.515-0.23-0.718c-0.1-0.001-0.201-0.002-0.301-0.002
			c-0.264,0.067-0.451,0.014-0.559-0.158c-0.108-0.17-0.1-0.392,0.023-0.664c0.132-0.066,0.245-0.133,0.343-0.202
			c0.098-0.066,0.214-0.101,0.348-0.1c-0.001-0.034-0.003-0.068-0.004-0.102c-0.011-0.271,0.081-0.476,0.276-0.611
			c0.133,0.001,0.2-0.015,0.199-0.05c-0.001-0.033,0.031-0.051,0.099-0.05c0.53-0.133,0.738,0.041,0.624,0.516
			c0.131-0.066,0.279-0.133,0.444-0.202c0.164-0.066,0.378-0.166,0.641-0.301c-0.011-0.272,0.147-0.475,0.478-0.61
			c0.332-0.065,0.595-0.216,0.787-0.455c0.192-0.237,0.384-0.491,0.574-0.763c0.129-0.135,0.297-0.133,0.504,0.004
			c0.129-0.135,0.258-0.271,0.387-0.406c0.099-0.033,0.199-0.067,0.298-0.1c0.173-0.748,0.28-1.481,0.321-2.197
			c0.039-0.716,0.216-1.379,0.531-1.991c0.555-1.359,1.162-2.736,1.821-4.129c0.659-1.393,1.305-2.736,1.937-4.028
			c-0.002-0.067,0.013-0.102,0.048-0.102c0.033,0,0.049-0.033,0.047-0.102c-0.004-0.102-0.007-0.204-0.01-0.306
			c-0.002-0.067,0.012-0.118,0.045-0.153c0.033-0.034,0.049-0.084,0.046-0.154c-0.011-0.34,0.014-0.544,0.081-0.613
			c0.114-0.612,0.263-1.207,0.448-1.787c0.183-0.577,0.438-1.072,0.764-1.478c-0.072-0.137-0.145-0.273-0.217-0.41
			c-0.094-0.75,0.07-1.432,0.492-2.043c0.422-0.611,0.895-1.187,1.424-1.73c0.475-1.122,0.951-2.244,1.428-3.366
			c-0.071-0.068-0.076-0.205-0.013-0.409c0.259-0.407,0.49-0.713,0.688-0.917c0.191-0.442,0.383-0.884,0.575-1.326
			c-0.067,0.033-0.134,0.067-0.201,0.1c0.285-0.748,0.57-1.497,0.856-2.245c0.101-0.067,0.202-0.135,0.303-0.202
			c0.161-0.34,0.322-0.681,0.484-1.021c-0.033,0.034-0.067,0.068-0.1,0.102c-0.2,0.204-0.404,0.238-0.614,0.099
			c-0.21-0.137-0.251-0.342-0.121-0.614c0.701-1.768,1.317-3.623,1.846-5.564c0.529-1.94,1.184-3.794,1.965-5.564
			c0.315-1.088,0.703-2.076,1.165-2.96c0.13-0.27,0.279-0.526,0.447-0.765c0.165-0.237,0.316-0.458,0.449-0.662
			c0.132-0.272,0.263-0.544,0.395-0.817c-0.002-0.068-0.003-0.136-0.005-0.204c0.188-0.749,0.464-1.481,0.829-2.195
			c0.362-0.715,0.709-1.445,1.039-2.195c-0.278-0.001-0.487-0.036-0.628-0.105c-0.351-0.137-0.495-0.376-0.434-0.717
			c0.128-0.409,0.671-0.951,1.629-1.63c-0.005-0.204,0.027-0.339,0.095-0.408c0.385-1.361,0.897-2.569,1.537-3.624
			c0.638-1.054,1.225-2.159,1.76-3.317c-0.418,0.067-0.768,0.066-1.048-0.004c-0.282-0.069-0.392-0.308-0.33-0.718
			c0.398-0.952,1.184-1.734,2.365-2.343c0.113-1.294,0.371-2.384,0.774-3.27c-0.001-0.034-0.001-0.068-0.002-0.102
			c-0.005-0.272,0.097-0.442,0.306-0.51c0.209-0.066,0.385,0.001,0.531,0.207c0.069,0,0.105-0.016,0.104-0.051
			c-0.001-0.033,0.033-0.051,0.104-0.05c0.07,0,0.141,0.001,0.211,0.001c0.138-0.102,0.277-0.204,0.415-0.306
			c0.91-0.132,1.788-0.18,2.632-0.144c0.844,0.038,1.688,0.125,2.533,0.264c0.773,0.072,1.476,0.142,2.109,0.211
			c0.633,0.07,1.23,0.141,1.793,0.21c0.282,0.137,0.442,0.307,0.481,0.512c0.037,0.204-0.119,0.376-0.467,0.51
			c-0.07,0-0.14,0-0.21-0.001c0.571,0.819,0.953,1.861,1.144,3.122c0.19,1.263,0.465,2.269,0.824,3.019
			c0.36,0.957,0.757,1.929,1.186,2.918c0.431,0.99,0.859,1.962,1.287,2.917c0.069,0,0.139-0.015,0.209-0.05
			c0.068-0.034,0.138-0.051,0.209-0.051c0.349,0.07,0.525,0.274,0.528,0.615c0.001,0.068,0.001,0.137,0.002,0.205
			c0.001,0.068-0.017,0.12-0.051,0.153c-0.036,0.035-0.051,0.087-0.05,0.153c-0.138,0.102-0.276,0.204-0.414,0.307
			c0.143,0.409,0.285,0.818,0.429,1.228c0.142,0.409,0.284,0.785,0.428,1.126c0.425,0.819,0.85,1.689,1.274,2.611
			c0.424,0.921,0.849,1.86,1.271,2.815c0.104,0,0.208,0,0.312,0c0.139,0.137,0.191,0.239,0.158,0.307
			c-0.035,0.068-0.051,0.171-0.05,0.306c0.001,0.069-0.017,0.102-0.051,0.102c-0.036,0-0.051,0.035-0.051,0.102
			c0.562,1.161,1.055,2.354,1.477,3.582c0.422,1.228,0.878,2.456,1.369,3.684c0.207,0.204,0.276,0.409,0.21,0.614
			c0.56,1.57,1.066,3.121,1.52,4.655c0.453,1.535,0.889,3.087,1.307,4.656c0.137,0,0.273,0,0.41,0
			c0.272,0.068,0.412,0.307,0.413,0.716c0,0.07-0.035,0.138-0.102,0.205c-0.068,0.068-0.119,0.153-0.153,0.256
			c-0.035,0.103-0.085,0.188-0.153,0.256c0.313,1.262,0.624,2.524,0.935,3.786c0.034-0.034,0.068-0.068,0.102-0.102
			c0.035,0.171,0.069,0.341,0.104,0.511c0,0.034,0,0.068,0,0.102c0.818-0.204,1.397-0.169,1.738,0.103
			c0.205,0.273,0.206,0.511,0.001,0.715c-0.306,0.341-0.611,0.682-0.916,1.023c0.068,0.17,0.137,0.341,0.205,0.511
			c0.135-0.067,0.34-0.034,0.613,0.103c0,0.204,0.068,0.375,0.206,0.511c0.205,0.204,0.271,0.409,0.206,0.614
			c0.614,1.637,1.159,3.376,1.635,5.217c0.474,1.84,1.05,3.649,1.726,5.421c0.034,0,0.068,0,0.101,0
			c0.033,0.102,0.067,0.205,0.1,0.307c-0.034,0-0.067,0-0.1,0c0.202,0.682,0.437,1.228,0.706,1.636
			c0.034-0.034,0.068-0.068,0.101-0.102c0.236,0.58,0.471,1.159,0.706,1.739c0.604,1.296,1.374,2.421,2.313,3.374
			c0.135-0.068,0.269-0.136,0.404-0.204c0.538-0.136,0.739,0.035,0.603,0.511c0,0.068,0.032,0.102,0.101,0.102
			c-0.101,0.068-0.202,0.136-0.304,0.204c-0.033,0.034-0.067,0.068-0.1,0.103c0.134,0.136,0.267,0.272,0.401,0.409
			c0.336-0.136,0.606-0.272,0.808-0.409c0.202-0.136,0.369-0.238,0.505-0.307c0.337-0.205,0.555-0.188,0.654,0.05
			c0.1,0.24,0.047,0.496-0.155,0.767c0.034,0,0.067,0,0.101,0c-0.069,0.069-0.17,0.103-0.303,0.103
			c-0.169,0.171-0.337,0.341-0.506,0.512c0.401,0.273,1.004,0.511,1.808,0.715c0.066,0,0.101-0.016,0.101-0.051
			c0-0.034,0.033-0.052,0.1-0.052c0.066,0,0.117-0.015,0.152-0.051c0.033-0.034,0.084-0.052,0.151-0.052
			c0.266,0.137,0.4,0.273,0.4,0.409c0.133,0.068,0.302,0.101,0.502,0.101c0.334,0.137,0.483,0.307,0.449,0.512
			c-0.036,0.204-0.221,0.375-0.556,0.512c0.132,0.137,0.198,0.341,0.196,0.614c-0.002,0.307-0.004,0.613-0.006,0.92
			c0.369-0.069,0.737-0.138,1.106-0.206c0.267,0.069,0.4,0.307,0.397,0.716c-0.138,0.341-0.24,0.546-0.306,0.614
			c-0.067,0.067-0.269,0.17-0.604,0.308c-0.1,0-0.2,0-0.301,0c0.131,0.339-0.039,0.614-0.507,0.818
			c-0.537,0.001-1.622-0.016-3.259-0.047c-1.639-0.034-3.46-0.067-5.466-0.1c-2.007-0.035-4.046-0.086-6.118-0.155
			c-2.074-0.071-3.78-0.175-5.118-0.312c-0.068,0-0.1,0.034-0.1,0.102c-0.401,0.067-0.819,0.152-1.253,0.254
			c-0.435,0.102-0.886,0.152-1.353,0.151c-0.099,0.17-0.197,0.341-0.296,0.511c-0.334,0.136-0.569,0.033-0.705-0.308
			c-0.346-1.161-0.557-2.251-0.633-3.274c-0.067,0-0.134,0-0.201,0c-0.202-0.137-0.322-0.308-0.356-0.512
			c-0.037-0.205,0.046-0.375,0.246-0.512c0.532-0.339,1.217-0.56,2.056-0.661c0.837-0.101,1.388-0.39,1.653-0.867
			c0.13-0.476,0.16-0.987,0.09-1.534c-0.337,0.137-0.571,0.137-0.706-0.001c-0.271-0.205-0.306-0.477-0.107-0.819
			c0.134-0.135,0.334-0.271,0.602-0.408c0.034,0,0.067,0,0.101,0c-0.211-1.16-0.591-2.523-1.143-4.093
			c-0.27,0-0.473-0.035-0.608-0.103c-0.271-0.136-0.407-0.307-0.409-0.512c-0.004-0.476,0.093-0.987,0.29-1.534
			c-0.348-1.091-0.746-2.149-1.194-3.172c-0.451-1.023-0.849-1.945-1.196-2.764c0.003,0.273-0.115,0.459-0.35,0.561
			c-0.236,0.102-0.424-0.016-0.562-0.359c-0.075-0.614-0.284-1.176-0.629-1.688c-0.346-0.512-0.623-1.076-0.834-1.69
			c-0.747,0.068-1.527,0.099-2.342,0.097c-0.814-0.002-1.596-0.004-2.343-0.006c-0.202,0.068-0.474,0.101-0.813,0.1
			c-0.17-0.001-0.339-0.001-0.509-0.002c-3.326,0.126-6.651,0.251-9.975,0.373c-1.289,0.064-2.509,0.142-3.661,0.239
			c-1.152,0.097-2.376,0.04-3.669-0.171c0.139,0.138,0.075,0.342-0.187,0.613c-0.265,0.272-0.492,0.611-0.684,1.019
			c-0.058,0.342-0.152,0.648-0.279,0.92c-0.129,0.272-0.255,0.578-0.381,0.918c0.004,0.138-0.009,0.29-0.037,0.46
			c-0.03,0.17-0.041,0.324-0.037,0.459C165.903,246.653,165.837,246.72,165.771,246.788z M188.308,231.433
			c-0.068,0.136-0.169,0.221-0.305,0.255c-0.138,0.035-0.275-0.052-0.413-0.257c-0.14-0.137-0.209-0.273-0.211-0.41
			c-0.103-0.068-0.207-0.137-0.31-0.205c-0.212-0.477-0.424-0.938-0.636-1.383c-0.212-0.443-0.391-0.904-0.534-1.382
			c-0.001-0.067-0.019-0.118-0.054-0.153c-0.036-0.033-0.052-0.085-0.053-0.153c-0.429-1.16-0.758-2.49-0.988-3.992
			c-0.142-0.307-0.284-0.615-0.427-0.922c-0.207-0.001-0.345-0.034-0.414-0.104c-0.035-0.034-0.07-0.068-0.105-0.102
			c-0.919-1.503-1.602-3.243-2.052-5.223c-0.43-0.956-0.898-1.929-1.398-2.92c-0.503-0.989-0.694-1.928-0.572-2.815
			c-0.145-0.34-0.29-0.681-0.435-1.024c-0.146-0.341-0.257-0.682-0.331-1.024c-0.073-0.136-0.111-0.341-0.116-0.614
			c-0.065,0.238-0.13,0.477-0.195,0.716c0.141,0.138,0.075,0.342-0.195,0.613c0.034,0,0.069,0,0.103,0
			c-0.136,0.137-0.239,0.203-0.307,0.203c-0.034,0.034-0.068,0.068-0.102,0.102c-0.401,0.749-0.802,1.497-1.202,2.246
			c-0.064,0.238-0.128,0.477-0.192,0.715c0.002,0.102,0.004,0.205,0.006,0.307c-0.034,0.034-0.068,0.067-0.102,0.101
			c0.035,0,0.069,0,0.104,0c-0.068,0.068-0.136,0.136-0.204,0.204c-0.163,0.477-0.326,0.954-0.488,1.43
			c-0.133,0.272-0.265,0.544-0.398,0.816c0.001,0.069-0.033,0.102-0.101,0.102c0.004,0.205-0.061,0.444-0.192,0.715
			c0.001,0.068,0.018,0.102,0.054,0.103c0.034,0,0.053,0.035,0.055,0.102c-0.132,0.342-0.262,0.664-0.393,0.97
			c-0.133,0.307-0.297,0.63-0.497,0.97c-0.101,0.102-0.202,0.204-0.303,0.306c-0.192,0.647-0.384,1.294-0.576,1.94
			c0.069,0,0.138,0.001,0.207,0.001c0.275,0.07,0.42,0.309,0.429,0.718c-0.06,0.408-0.207,0.784-0.439,1.123
			c-0.233,0.341-0.518,0.68-0.853,1.019c0.001,0.034,0.002,0.068,0.002,0.102c-0.163,0.374-0.326,0.749-0.489,1.123
			c0.211,0.206,0.181,0.446-0.086,0.716c-0.067,0.068-0.169,0.102-0.306,0.101c0.001,0.068-0.015,0.12-0.048,0.153
			c-0.035,0.035-0.049,0.086-0.047,0.153c0.138,0.07,0.279,0.275,0.426,0.616c0.034,0,0.069,0,0.103,0
			c-0.033,0.068-0.065,0.136-0.098,0.204c-0.127,0.478-0.321,0.936-0.584,1.378c-0.264,0.443-0.492,0.902-0.685,1.378
			c0.001,0.034,0.002,0.068,0.003,0.102c-0.034,0-0.069,0-0.103,0c-0.095,0.306-0.19,0.613-0.286,0.919
			c0.005,0.205-0.027,0.342-0.093,0.409c0.002,0.068,0.019,0.102,0.054,0.102c0.033,0,0.052,0.036,0.053,0.103
			c0.96,0.142,1.916,0.129,2.869-0.038c0.953-0.165,1.976-0.247,3.071-0.243c0.208,0.138,0.313,0.241,0.314,0.308
			c0.886-0.063,1.741-0.111,2.56-0.144c0.82-0.03,1.64-0.045,2.46-0.042c1.567-0.267,3.275-0.4,5.121-0.395
			c0.274,0.07,0.414,0.308,0.42,0.717c0.001,0.068,0.002,0.137,0.003,0.205c-0.404,0.408-0.711,0.442-0.921,0.1
			c-0.068,0-0.137,0-0.205-0.001C187.224,232.18,187.766,231.807,188.308,231.433z"/>
		<path fill="#5ECAE8" d="M237.427,253.5c-0.136,0.001-0.238,0.036-0.305,0.103c0.184,0.956,0.182,1.858-0.001,2.711
			c-0.185,0.855-0.017,1.723,0.504,2.606c0.196,0.273,0.578,0.443,1.148,0.507c0.568,0.067,1.118,0.201,1.653,0.403
			c0.531,0.202,0.908,0.594,1.131,1.171c0.221,0.58,0.049,1.552-0.516,2.918c-0.274,0.273-0.51,0.376-0.708,0.309
			c-0.199-0.068-0.298-0.17-0.295-0.305c-1.037,0.004-2.074,0.008-3.111,0.012c-0.032-0.068-0.064-0.136-0.097-0.205
			c-1.072,0.004-2.143-0.008-3.212-0.04c-1.07-0.031-2.142-0.045-3.212-0.042c-0.001,0.069,0.182,0.102,0.55,0.101
			c0.368-0.001,0.518,0.032,0.451,0.101c-0.001,0.034-0.001,0.068-0.002,0.102c-0.034,0-0.067,0-0.101,0
			c-0.603,0.068-1.257,0.172-1.962,0.312c-0.704,0.137-1.356,0.106-1.956-0.098c-0.066-0.068-0.132-0.136-0.198-0.203
			c-0.739,0.137-1.509,0.224-2.312,0.261c-0.804,0.035-1.574,0.054-2.309,0.055c-0.133-0.102-0.266-0.204-0.399-0.306
			c-0.568-0.067-1.136-0.135-1.705-0.202c-0.404,0.409-0.673,0.444-0.803,0.104c0-0.034,0-0.068,0.001-0.102
			c-0.131-0.545-0.242-1.192-0.338-1.943c-0.095-0.749,0.16-1.294,0.766-1.637c0.202-0.068,0.368-0.034,0.502,0.102
			c2.013-0.07,3.39-0.295,4.133-0.672c0.741-0.376,1.168-0.923,1.277-1.64c0.109-0.715,0.102-1.585-0.02-2.608
			c-0.124-1.022,0.025-2.215,0.446-3.58c0.071-0.341,0.109-0.648,0.112-0.921c0.003-0.271,0.007-0.579,0.011-0.92
			c-0.068,0-0.135,0-0.203,0c-0.136,0-0.236-0.034-0.302-0.102c-0.033-0.034-0.067-0.068-0.1-0.102
			c0.003-0.239,0.006-0.478,0.008-0.716c-0.033-0.034-0.067-0.068-0.1-0.102c-0.4-0.476-0.327-1.055,0.223-1.739
			c0.075-0.68,0.15-1.346,0.227-1.995c0.073-0.647,0.116-1.312,0.124-1.995c-0.272,0.001-0.44-0.135-0.504-0.408
			c-0.131-0.544-0.257-1.278-0.382-2.199c-0.127-0.92,0.153-1.585,0.839-1.996c0.001-0.067-0.016-0.136-0.049-0.204
			c-0.034-0.067-0.049-0.17-0.047-0.307c-0.069,0-0.103,0.018-0.103,0.052c-0.001,0.035-0.035,0.051-0.103,0.051
			c-0.102,0-0.204,0-0.306,0.001c-0.407-0.135-0.473-0.408-0.195-0.818c0.172-0.137,0.344-0.273,0.515-0.41
			c-0.064-0.409-0.127-0.818-0.191-1.227c-0.133-0.34-0.264-0.851-0.392-1.533c-0.068,0-0.137,0-0.205,0
			c-0.408-0.135-0.473-0.408-0.195-0.818c0.068-0.068,0.12-0.136,0.156-0.204c0.034-0.068,0.12-0.137,0.258-0.205
			c0.005-0.409,0.009-0.818,0.014-1.228c-0.066-0.205-0.098-0.476-0.094-0.818c-0.064-0.409-0.059-0.852,0.015-1.329
			c0.073-0.477,0.181-0.921,0.324-1.331c0.003-0.271,0.073-0.443,0.211-0.512c0.003-0.272,0.04-0.476,0.11-0.614
			c0.001-0.067,0.07-0.17,0.21-0.308c-0.066-0.339-0.113-0.664-0.143-0.971c-0.032-0.307-0.046-0.563-0.043-0.768
			c-0.069,0-0.103-0.033-0.102-0.101c-0.204-0.136-0.29-0.289-0.252-0.46c0.036-0.17,0.124-0.323,0.263-0.461
			c0.035-0.034,0.07-0.068,0.104-0.103c0.005-0.409,0.027-0.903,0.069-1.483c0.04-0.578,0.068-1.414,0.08-2.506
			c-0.063-0.476-0.093-0.936-0.088-1.381c0.005-0.443,0.01-0.903,0.016-1.381c-0.415,0.069-0.761,0.07-1.035,0.002
			c-0.483-0.135-0.583-0.408-0.301-0.818c0.069-0.034,0.138-0.068,0.208-0.102c0-0.034,0.001-0.068,0.001-0.102
			c0.383-0.274,0.766-0.547,1.149-0.821c0.012-1.023,0.023-2.046,0.035-3.069c0.071-0.136,0.142-0.273,0.213-0.409
			c-0.126-1.158-0.269-2.335-0.428-3.528c-0.16-1.192-0.269-2.404-0.324-3.631c0.001-0.136,0.072-0.271,0.214-0.409
			c-0.065-0.544-0.093-1.057-0.087-1.534c0.005-0.476,0.011-0.988,0.017-1.535c0.001-0.068,0.001-0.136,0.002-0.204
			c0.012-1.09,0.037-1.841,0.078-2.25c0.039-0.41,0.024-0.716-0.043-0.921c-0.068-0.204-0.17-0.442-0.306-0.716
			c-0.138-0.271-0.376-0.817-0.717-1.635c-0.209-0.135-0.383-0.271-0.521-0.408c-0.14-0.135-0.278-0.271-0.417-0.408
			c-0.105,0-0.21,0-0.315,0.001c-0.21,0-0.315-0.067-0.314-0.204c-0.629-0.066-1.401,0.002-2.313,0.209
			c-0.35-0.067-0.454-0.272-0.31-0.613c-0.141,0-0.21-0.136-0.207-0.41c0.005-0.613,0.009-1.227,0.014-1.84
			c-0.559-0.409-0.485-0.75,0.219-1.024c0.105,0,0.21,0,0.315,0c0.214-0.409,0.459-0.41,0.737-0.001
			c1.123-0.068,2.406-0.208,3.848-0.416c1.441-0.208,2.936-0.38,4.484-0.522c1.058-0.343,1.906-0.601,2.541-0.774
			c0.635-0.172,1.481-0.26,2.535-0.263c0.278,0.067,0.416,0.305,0.409,0.714c-0.073,0.137-0.145,0.274-0.218,0.411
			c0.211-0.001,0.455,0.067,0.734,0.201c1.335-0.071,2.67-0.076,4.004-0.014c1.331,0.064,2.629,0.161,3.891,0.292
			c1.866-0.213,3.732-0.426,5.599-0.64c0.278,0.067,0.415,0.238,0.408,0.509c0.211-0.001,0.421,0.015,0.631,0.048
			c0.21,0.034,0.42,0.049,0.631,0.048c2.323-0.217,4.676-0.23,7.057-0.039c0.035,0,0.07,0,0.106-0.001
			c-0.001,0.034-0.002,0.068-0.003,0.102c0.207,0.136,0.306,0.272,0.302,0.407c1.257,0.197,2.387,0.497,3.391,0.899
			c1.002,0.403,1.88,0.841,2.636,1.312c0.198,0.341,0.188,0.612-0.029,0.819c0.963,0.471,1.87,1.027,2.721,1.668
			c0.85,0.643,1.187,1.407,1.014,2.294c0.139-0.001,0.274,0.101,0.407,0.303c0.04,0.751,0.224,1.397,0.553,1.939
			c0.327,0.544,0.69,1.087,1.086,1.628c0.396,0.543,0.774,1.119,1.132,1.73c0.357,0.611,0.59,1.292,0.699,2.041
			c-0.022,0.547-0.276,0.752-0.755,0.62c0.044,0.613,0.07,1.244,0.079,1.891c0.008,0.649-0.035,1.279-0.129,1.893
			c-0.092,0.547-0.361,1.197-0.807,1.95c0.141-0.069,0.282-0.139,0.423-0.208c-0.162,0.548-0.302,1.06-0.426,1.537
			c-0.122,0.479-0.263,0.958-0.42,1.435c-0.005,0.137,0.005,0.255,0.037,0.358c0.029,0.102,0.007,0.222-0.066,0.359
			c-0.145,0.139-0.273,0.326-0.385,0.565c-0.114,0.241-0.244,0.462-0.389,0.668c-0.097,0.682-0.428,1.196-0.992,1.541
			c-0.069,0.001-0.104,0.036-0.107,0.103c-0.583,0.756-1.194,1.44-1.837,2.058c-0.07,0.035-0.14,0.069-0.21,0.104
			c-0.005,0.138-0.045,0.24-0.115,0.308c-0.22,0.343-0.347,0.531-0.383,0.565c-0.037,0.035-0.159,0.121-0.371,0.258
			c-0.004,0.102-0.008,0.205-0.011,0.307c-0.303,0.753-0.945,1.371-1.924,1.854c-0.037,0.068-0.073,0.137-0.11,0.205
			c-1.197,0.759-2.286,1.516-3.272,2.272c-0.559,0.277-1.099,0.553-1.622,0.829c-0.523,0.276-0.995,0.552-1.415,0.827
			c-0.071,0.069-0.141,0.102-0.209,0.103c-0.417,0.207-0.835,0.414-1.252,0.621c-0.654,0.106-1.308,0.212-1.962,0.319
			c-0.971,0.347-1.951,0.539-2.944,0.578c-0.994,0.04-1.97,0.097-2.93,0.169c-0.377,0.036-0.755,0.071-1.132,0.107
			c-0.034,0-0.069,0-0.103,0c-0.892,0.074-1.798,0.06-2.72-0.038c-0.921-0.098-1.796-0.008-2.624,0.267
			c-0.445,0.002-0.89,0.004-1.335,0.005c-0.068,0-0.101-0.033-0.1-0.102c-0.413,0.071-0.824,0.123-1.235,0.158
			c-0.412,0.037-0.824,0.123-1.237,0.26c-0.006,0.342-0.048,0.701-0.123,1.075c-0.076,0.376-0.185,0.734-0.327,1.075
			c0.343-0.137,0.582-0.137,0.717-0.003c0.468,0.477,0.644,1.191,0.522,2.146c-0.121,0.957-0.258,1.842-0.41,2.661
			c-0.013,0.682-0.058,1.194-0.132,1.534c0.033,0.068,0.066,0.136,0.098,0.205c0.203,0.068,0.3,0.272,0.294,0.612
			c-0.001,0.068-0.003,0.137-0.004,0.205c-0.069,0.069-0.138,0.137-0.207,0.206c-0.007,0.341-0.012,0.649-0.018,0.92
			c-0.005,0.273-0.046,0.581-0.12,0.922c0.068,0,0.136,0,0.204-0.001c-0.039,0.239-0.077,0.477-0.116,0.716
			c-0.004,0.205-0.008,0.409-0.012,0.614c-0.03,1.57-0.195,3.002-0.488,4.298c-0.004,0.205-0.025,0.409-0.063,0.614
			c-0.039,0.205-0.058,0.409-0.062,0.614c-0.001,0.068,0.031,0.102,0.1,0.102c-0.007,0.341,0.003,0.649,0.033,0.92
			c0.028,0.273,0.039,0.581,0.033,0.92c-0.001,0.069,0.014,0.12,0.048,0.154c0.032,0.035,0.048,0.12,0.045,0.255
			c-0.001,0.034-0.001,0.068-0.002,0.102c0.063,0.204,0.108,0.443,0.138,0.715c0.029,0.273,0.005,0.58-0.068,0.921
			c0.065,0.068,0.098,0.171,0.095,0.306c-0.002,0.102-0.004,0.205-0.006,0.307C237.496,253.432,237.461,253.466,237.427,253.5z
			 M237.861,220.154c-0.073,0.205-0.112,0.478-0.118,0.818c0.271,0.137,0.546,0.203,0.822,0.202c0.068,0,0.104-0.034,0.105-0.103
			c0.001-0.034,0.001-0.068,0.002-0.102c0.103,0,0.206-0.001,0.309-0.001c0.832-0.274,1.694-0.364,2.588-0.266
			c0.892,0.099,1.784,0.215,2.677,0.347c0.207-0.001,0.414-0.018,0.621-0.053c0.207-0.035,0.379-0.053,0.518-0.054
			c0.829-0.139,1.658-0.228,2.484-0.267c0.828-0.037,1.617,0.01,2.372,0.142c0.034,0,0.069,0,0.103-0.001
			c0.139-0.068,0.38-0.104,0.726-0.106c0.035-0.034,0.071-0.069,0.106-0.103c0.036-0.068,0.073-0.137,0.109-0.205
			c0.356-0.478,0.882-0.822,1.579-1.031c0.694-0.209,1.316-0.245,1.864-0.113c0.316-0.206,0.632-0.413,0.949-0.619
			c0.037-0.068,0.073-0.136,0.11-0.205c0.291-0.547,0.547-0.958,0.763-1.232c0.51-0.889,0.971-1.812,1.382-2.77
			c0.41-0.957,0.833-1.709,1.266-2.259c0.002-0.066,0.02-0.102,0.056-0.102c0.034,0,0.053-0.034,0.055-0.103
			c-0.207,0.001-0.307-0.134-0.298-0.408c-0.035,0-0.069,0-0.104,0.001c0.002-0.066,0.074-0.169,0.218-0.308
			c0.162-0.75,0.267-1.296,0.314-1.638c0.045-0.341,0.253-0.888,0.626-1.64c0.031-0.921,0.061-1.842,0.092-2.763
			c-0.136-0.135-0.198-0.305-0.191-0.51c-0.131-0.271-0.279-0.525-0.445-0.764c-0.166-0.237-0.315-0.525-0.442-0.867
			c-0.067-0.067-0.098-0.204-0.091-0.408c-0.1-0.136-0.2-0.272-0.3-0.408c-0.075,0.138-0.183,0.258-0.326,0.36
			c-0.143,0.103-0.28,0.019-0.41-0.253c-0.034-0.034-0.068-0.068-0.101-0.102c-0.128-0.408-0.431-0.713-0.912-0.915
			c-0.482-0.202-0.855-0.574-1.116-1.118c-0.067-0.135-0.082-0.22-0.045-0.255c0.036-0.034,0.055-0.085,0.058-0.154
			c-0.41-0.27-0.825-0.438-1.241-0.504c-0.419,0.002-0.697-0.03-0.835-0.098c-0.346-0.134-0.446-0.305-0.299-0.51
			c-0.766-0.132-1.46-0.264-2.085-0.399c-0.625-0.132-1.321-0.231-2.087-0.296c-0.105,0-0.21,0.001-0.315,0.002
			c0.064,0.204-0.081,0.409-0.435,0.616c-0.035,0-0.07,0-0.105,0c-1.817,0.009-3.524-0.102-5.126-0.335
			c-1.602-0.232-3.281-0.207-5.032,0.07c-0.001,0.068-0.003,0.137-0.004,0.205c-0.225,0.82-0.344,1.57-0.356,2.251
			c-0.001,0.069,0.031,0.138,0.101,0.205c-0.001,0.068-0.003,0.136-0.004,0.204c-0.014,0.751-0.028,1.468-0.041,2.149
			c-0.013,0.682,0.007,1.398,0.064,2.147c0.211-0.136,0.382-0.034,0.516,0.305c0.125,0.682,0.146,1.347,0.065,1.995
			c-0.082,0.649-0.199,1.314-0.35,1.996c-0.004,0.205-0.008,0.409-0.012,0.614c0.035,0,0.069,0,0.104,0
			c-0.001,0.069-0.038,0.102-0.106,0.102c0.062,0.342,0.091,0.665,0.085,0.972c-0.006,0.307-0.012,0.631-0.019,0.972
			c0.034,0.034,0.068,0.068,0.102,0.102c0.261,0.75,0.395,1.823,0.403,3.221c0.007,1.398-0.272,2.439-0.837,3.123
			c-0.007,0.375-0.014,0.75-0.022,1.125C237.931,220.085,237.896,220.119,237.861,220.154z"/>
		<path fill="#5ECAE8" d="M279.182,246.591c-0.162,0.548-0.432,1.266-0.811,2.154c-0.38,0.89-0.759,1.815-1.14,2.772
			c-0.17,0.752-0.405,1.452-0.702,2.102c-0.299,0.651-0.566,1.352-0.802,2.103c-0.125,0.547-0.25,1.094-0.375,1.64
			c-0.003,0.068-0.006,0.136-0.009,0.204c-0.035,0.034-0.07,0.069-0.106,0.103c-0.083,0.343-0.181,0.683-0.297,1.025
			c-0.117,0.343-0.249,0.685-0.398,1.027c0.113,0.476,0.318,0.764,0.615,0.864c0.298,0.099,0.713,0.147,1.251,0.143
			c0.139-0.137,0.377-0.208,0.713-0.211c0.131,0.067,0.262,0.134,0.394,0.201c-0.002,0.034-0.003,0.068-0.005,0.102
			c0.133-0.001,0.262,0.099,0.388,0.303c0.047,0.408,0.026,0.853-0.062,1.33c-0.003,0.068-0.039,0.103-0.105,0.103
			c-0.005,0.102-0.01,0.204-0.014,0.306c-0.287,0.411-0.526,0.516-0.717,0.314c-0.74,0.074-1.479,0.149-2.218,0.223
			c-0.474,0.14-0.999,0.264-1.571,0.371c-0.574,0.107-1.126,0.094-1.654-0.037c-2.153,0.288-4.286,0.527-6.399,0.713
			c-2.114,0.185-3.999,0.078-5.657-0.319c-0.325-0.271-0.384-0.509-0.177-0.715c-0.1,0.001-0.201,0.001-0.301,0.002
			c-0.27,0.071-0.453,0.021-0.548-0.15c-0.094-0.168-0.069-0.391,0.073-0.665c0.137-0.068,0.256-0.137,0.359-0.207
			c0.102-0.068,0.221-0.104,0.355-0.105c0.001-0.034,0.002-0.068,0.003-0.102c0.009-0.271,0.116-0.477,0.322-0.615
			c0.133-0.001,0.202-0.018,0.203-0.053c0.001-0.033,0.034-0.051,0.102-0.051c0.541-0.14,0.736,0.03,0.585,0.507
			c0.137-0.068,0.289-0.138,0.46-0.208c0.169-0.068,0.391-0.171,0.664-0.311c0.01-0.272,0.184-0.477,0.526-0.617
			c0.336-0.07,0.612-0.225,0.821-0.466c0.21-0.24,0.42-0.496,0.632-0.771c0.138-0.137,0.308-0.138,0.503-0.004
			c0.139-0.137,0.279-0.274,0.419-0.412c0.102-0.035,0.204-0.07,0.306-0.105c0.23-0.751,0.391-1.486,0.486-2.203
			c0.093-0.717,0.321-1.383,0.681-1.999c0.658-1.368,1.37-2.754,2.133-4.157c0.765-1.403,1.511-2.756,2.242-4.057
			c0.003-0.067,0.021-0.103,0.056-0.103c0.033,0,0.052-0.034,0.055-0.103c0.004-0.102,0.008-0.204,0.013-0.306
			c0.003-0.067,0.02-0.118,0.057-0.154c0.035-0.034,0.055-0.086,0.058-0.155c0.014-0.34,0.055-0.545,0.127-0.615
			c0.16-0.614,0.354-1.212,0.582-1.794c0.227-0.58,0.518-1.078,0.876-1.49c-0.062-0.136-0.124-0.272-0.186-0.407
			c-0.038-0.749,0.178-1.433,0.646-2.051c0.468-0.617,0.985-1.2,1.554-1.751c0.56-1.129,1.12-2.259,1.682-3.389
			c-0.066-0.067-0.06-0.204,0.018-0.409c0.29-0.411,0.544-0.72,0.757-0.927c0.225-0.445,0.45-0.89,0.675-1.335
			c-0.07,0.034-0.139,0.069-0.209,0.103c0.341-0.753,0.683-1.506,1.025-2.259c0.106-0.069,0.212-0.138,0.318-0.207
			c0.187-0.343,0.374-0.686,0.561-1.028c-0.036,0.034-0.072,0.069-0.108,0.103c-0.216,0.207-0.422,0.244-0.621,0.108
			c-0.2-0.134-0.226-0.339-0.075-0.613c0.834-1.779,1.59-3.644,2.266-5.594c0.675-1.948,1.47-3.813,2.384-5.595
			c0.397-1.093,0.86-2.087,1.388-2.979c0.151-0.273,0.319-0.53,0.505-0.772c0.183-0.24,0.35-0.463,0.499-0.669
			c0.152-0.274,0.305-0.549,0.457-0.823c0.003-0.068,0.007-0.136,0.01-0.204c0.245-0.753,0.576-1.488,0.995-2.208
			c0.416-0.72,0.818-1.456,1.205-2.211c-0.278,0.003-0.484-0.029-0.62-0.096c-0.341-0.132-0.467-0.369-0.38-0.711
			c0.159-0.411,0.743-0.961,1.753-1.654c0.011-0.204,0.052-0.34,0.126-0.41c0.488-1.368,1.091-2.583,1.81-3.648
			c0.718-1.064,1.387-2.178,2.01-3.344c-0.423,0.074-0.773,0.077-1.048,0.011c-0.276-0.065-0.369-0.303-0.276-0.713
			c0.47-0.958,1.315-1.752,2.542-2.378c0.21-1.296,0.551-2.391,1.021-3.283c0.002-0.034,0.004-0.068,0.006-0.103
			c0.015-0.271,0.13-0.444,0.345-0.515c0.214-0.069,0.385-0.004,0.515,0.199c0.069-0.001,0.107-0.018,0.108-0.053
			c0.002-0.033,0.037-0.051,0.107-0.052c0.07-0.001,0.141-0.001,0.211-0.002c0.146-0.104,0.292-0.208,0.438-0.312
			c0.92-0.146,1.802-0.206,2.643-0.182c0.841,0.026,1.679,0.101,2.514,0.228c0.767,0.061,1.466,0.121,2.094,0.181
			c0.628,0.061,1.219,0.124,1.778,0.184c0.272,0.133,0.419,0.301,0.442,0.506c0.021,0.204-0.147,0.377-0.506,0.517
			c-0.07,0.001-0.14,0.002-0.21,0.002c0.51,0.811,0.813,1.849,0.909,3.108c0.095,1.261,0.294,2.264,0.597,3.009
			c0.289,0.952,0.612,1.919,0.967,2.903c0.356,0.985,0.711,1.951,1.067,2.901c0.069-0.001,0.14-0.017,0.213-0.053
			c0.071-0.035,0.142-0.053,0.213-0.054c0.343,0.065,0.504,0.267,0.482,0.608c-0.004,0.068-0.009,0.137-0.013,0.205
			c-0.004,0.068-0.026,0.12-0.063,0.154c-0.038,0.036-0.057,0.088-0.062,0.154c-0.146,0.104-0.291,0.208-0.437,0.313
			c0.112,0.407,0.223,0.815,0.337,1.223c0.111,0.407,0.226,0.781,0.343,1.12c0.364,0.813,0.723,1.677,1.077,2.594
			c0.354,0.915,0.709,1.849,1.059,2.799c0.104-0.001,0.208-0.003,0.312-0.004c0.128,0.135,0.173,0.237,0.135,0.305
			c-0.04,0.069-0.064,0.171-0.073,0.307c-0.005,0.069-0.025,0.103-0.058,0.103c-0.036,0-0.054,0.036-0.058,0.103
			c0.474,1.154,0.878,2.34,1.208,3.563c0.33,1.223,0.694,2.445,1.091,3.667c0.192,0.202,0.246,0.405,0.163,0.611
			c0.442,1.563,0.831,3.107,1.17,4.636c0.338,1.529,0.657,3.076,0.956,4.64c0.137-0.002,0.273-0.004,0.41-0.006
			c0.267,0.065,0.388,0.301,0.359,0.71c-0.005,0.069-0.045,0.138-0.117,0.206c-0.073,0.069-0.13,0.155-0.172,0.258
			c-0.042,0.103-0.099,0.19-0.172,0.258c0.217,1.258,0.434,2.516,0.65,3.775c0.037-0.035,0.073-0.069,0.11-0.104
			c0.022,0.17,0.044,0.34,0.066,0.51c-0.002,0.034-0.005,0.068-0.007,0.103c0.833-0.216,1.409-0.189,1.73,0.079
			c0.185,0.271,0.167,0.509-0.052,0.716c-0.331,0.346-0.663,0.691-0.993,1.037c0.055,0.17,0.111,0.339,0.166,0.509
			c0.141-0.069,0.342-0.039,0.605,0.094c-0.015,0.204,0.04,0.374,0.167,0.509c0.189,0.201,0.24,0.405,0.159,0.611
			c0.491,1.629,0.905,3.361,1.243,5.197c0.336,1.835,0.775,3.636,1.317,5.399c0.034,0,0.068-0.001,0.101-0.001
			c0.026,0.102,0.051,0.204,0.077,0.306c-0.033,0-0.067,0.001-0.1,0.001c0.15,0.68,0.344,1.222,0.583,1.627
			c0.036-0.035,0.073-0.069,0.109-0.104c0.192,0.577,0.383,1.153,0.575,1.73c0.507,1.288,1.192,2.403,2.059,3.343
			c0.14-0.07,0.279-0.14,0.419-0.21c0.548-0.144,0.736,0.024,0.565,0.503c-0.006,0.068,0.025,0.102,0.093,0.101
			c-0.106,0.07-0.213,0.139-0.319,0.209c-0.036,0.035-0.072,0.069-0.108,0.104c0.123,0.134,0.247,0.269,0.37,0.403
			c0.346-0.141,0.626-0.281,0.839-0.421c0.212-0.139,0.387-0.244,0.528-0.314c0.352-0.21,0.569-0.196,0.651,0.041
			c0.082,0.239,0.01,0.495-0.212,0.77c0.034-0.001,0.067-0.001,0.101-0.002c-0.074,0.07-0.178,0.105-0.311,0.107
			c-0.181,0.173-0.363,0.346-0.544,0.519c0.381,0.267,0.965,0.496,1.754,0.689c0.066-0.001,0.102-0.017,0.105-0.052
			c0.003-0.034,0.037-0.052,0.104-0.053c0.066-0.001,0.118-0.018,0.156-0.053c0.035-0.035,0.088-0.053,0.155-0.054
			c0.256,0.134,0.38,0.267,0.369,0.404c0.128,0.066,0.294,0.097,0.495,0.094c0.324,0.132,0.461,0.3,0.411,0.506
			c-0.051,0.205-0.25,0.378-0.594,0.52c0.122,0.136,0.172,0.339,0.15,0.611c-0.025,0.307-0.05,0.614-0.076,0.921
			c0.374-0.074,0.748-0.148,1.122-0.222c0.262,0.065,0.377,0.301,0.343,0.71c-0.163,0.343-0.281,0.55-0.353,0.619
			c-0.073,0.068-0.282,0.174-0.627,0.317c-0.1,0.002-0.2,0.003-0.301,0.005c0.105,0.338-0.085,0.615-0.569,0.826
			c-0.537,0.008-1.621,0.008-3.255-0.001c-1.636-0.01-3.455-0.018-5.458-0.022c-2.004-0.006-4.04-0.029-6.106-0.068
			c-2.068-0.041-3.767-0.121-5.094-0.24c-0.068,0.001-0.103,0.035-0.107,0.104c-0.407,0.073-0.831,0.164-1.272,0.272
			c-0.442,0.108-0.897,0.165-1.364,0.171c-0.112,0.172-0.223,0.343-0.334,0.515c-0.345,0.141-0.571,0.041-0.682-0.298
			c-0.258-1.157-0.388-2.244-0.387-3.267c-0.067,0.001-0.134,0.002-0.201,0.003c-0.191-0.134-0.298-0.304-0.318-0.507
			c-0.021-0.204,0.074-0.376,0.285-0.516c0.558-0.346,1.259-0.578,2.106-0.691c0.845-0.113,1.417-0.409,1.718-0.891
			c0.166-0.478,0.234-0.99,0.205-1.536c-0.347,0.142-0.581,0.145-0.706,0.009c-0.255-0.202-0.27-0.473-0.046-0.818
			c0.144-0.137,0.354-0.275,0.633-0.417c0.034,0,0.067-0.001,0.101-0.001c-0.123-1.157-0.401-2.516-0.835-4.079
			c-0.27,0.003-0.47-0.028-0.6-0.095c-0.261-0.132-0.384-0.302-0.37-0.506c0.032-0.477,0.167-0.989,0.405-1.539
			c-0.266-1.086-0.584-2.14-0.955-3.157c-0.374-1.018-0.702-1.934-0.988-2.748c-0.018,0.273-0.149,0.461-0.392,0.567
			c-0.244,0.105-0.423-0.01-0.535-0.351c-0.029-0.613-0.195-1.173-0.502-1.68c-0.308-0.507-0.542-1.067-0.707-1.679
			c-0.752,0.078-1.535,0.121-2.35,0.13c-0.815,0.01-1.596,0.019-2.343,0.027c-0.207,0.071-0.482,0.108-0.821,0.112
			c-0.17,0.002-0.34,0.004-0.509,0.006c-3.336,0.174-6.671,0.346-10.005,0.515c-1.294,0.082-2.52,0.178-3.68,0.292
			c-1.16,0.114-2.379,0.074-3.658-0.119c0.128,0.136,0.05,0.341-0.233,0.616c-0.285,0.276-0.538,0.618-0.761,1.029
			c-0.084,0.343-0.201,0.651-0.348,0.924c-0.15,0.274-0.299,0.582-0.451,0.924c-0.006,0.138-0.031,0.291-0.072,0.461
			c-0.043,0.171-0.066,0.324-0.072,0.46C279.324,246.453,279.253,246.522,279.182,246.591z M302.882,230.906
			c-0.078,0.138-0.186,0.224-0.324,0.259c-0.14,0.037-0.271-0.048-0.394-0.251c-0.129-0.135-0.189-0.27-0.18-0.408
			c-0.098-0.067-0.197-0.134-0.295-0.2c-0.177-0.474-0.354-0.932-0.532-1.375c-0.179-0.44-0.322-0.898-0.43-1.375
			c0.004-0.066-0.01-0.118-0.043-0.153c-0.033-0.033-0.046-0.084-0.042-0.153c-0.342-1.155-0.571-2.481-0.688-3.98
			c-0.119-0.306-0.238-0.611-0.357-0.917c-0.207,0.002-0.342-0.029-0.406-0.098c-0.032-0.033-0.065-0.067-0.097-0.1
			c-0.806-1.491-1.358-3.223-1.659-5.197c-0.358-0.95-0.753-1.917-1.179-2.902c-0.428-0.983-0.549-1.92-0.36-2.809
			c-0.12-0.338-0.239-0.677-0.358-1.019c-0.121-0.339-0.206-0.679-0.254-1.02c-0.063-0.135-0.085-0.34-0.07-0.613
			c-0.083,0.24-0.166,0.479-0.249,0.719c0.13,0.136,0.049,0.341-0.242,0.616c0.034,0,0.069-0.001,0.103-0.001
			c-0.147,0.139-0.254,0.207-0.323,0.207c-0.037,0.035-0.073,0.069-0.11,0.104c-0.458,0.755-0.915,1.509-1.371,2.264
			c-0.082,0.24-0.164,0.479-0.246,0.719c-0.006,0.102-0.011,0.205-0.017,0.307c-0.036,0.034-0.073,0.068-0.109,0.103
			c0.035,0,0.069-0.001,0.104-0.001c-0.073,0.069-0.146,0.138-0.219,0.207c-0.199,0.479-0.398,0.959-0.596,1.438
			c-0.153,0.274-0.306,0.548-0.459,0.822c-0.004,0.069-0.041,0.103-0.108,0.104c-0.011,0.205-0.094,0.445-0.246,0.719
			c-0.004,0.068,0.01,0.102,0.046,0.102c0.035-0.001,0.051,0.035,0.047,0.101c-0.157,0.344-0.312,0.669-0.466,0.976
			c-0.156,0.309-0.345,0.635-0.57,0.977c-0.109,0.104-0.217,0.207-0.326,0.311c-0.241,0.65-0.482,1.3-0.722,1.95
			c0.069-0.001,0.138-0.001,0.207-0.002c0.27,0.067,0.396,0.303,0.375,0.712c-0.091,0.41-0.266,0.787-0.524,1.13
			c-0.259,0.345-0.569,0.688-0.93,1.032c-0.002,0.034-0.004,0.068-0.005,0.102c-0.191,0.377-0.382,0.754-0.573,1.13
			c0.196,0.203,0.148,0.443-0.14,0.717c-0.072,0.069-0.177,0.104-0.314,0.105c-0.004,0.068-0.024,0.12-0.06,0.154
			c-0.037,0.036-0.055,0.086-0.059,0.154c0.133,0.068,0.259,0.271,0.379,0.61c0.034,0,0.069-0.001,0.103-0.001
			c-0.038,0.069-0.076,0.137-0.114,0.206c-0.163,0.48-0.392,0.941-0.688,1.387c-0.297,0.447-0.559,0.91-0.789,1.388
			c-0.002,0.034-0.003,0.068-0.005,0.102c-0.034,0-0.068,0.001-0.103,0.001c-0.118,0.308-0.237,0.616-0.355,0.923
			c-0.011,0.205-0.053,0.343-0.123,0.411c-0.003,0.068,0.012,0.101,0.047,0.101c0.033-0.001,0.049,0.036,0.046,0.102
			c0.95,0.128,1.907,0.102,2.873-0.079c0.965-0.179,1.995-0.276,3.09-0.287c0.198,0.136,0.295,0.237,0.291,0.303
			c0.891-0.075,1.75-0.136,2.571-0.18c0.823-0.042,1.643-0.068,2.464-0.077c1.588-0.29,3.305-0.447,5.152-0.468
			c0.269,0.066,0.391,0.303,0.366,0.712c-0.004,0.068-0.008,0.137-0.013,0.205c-0.435,0.414-0.744,0.453-0.928,0.113
			c-0.068,0.001-0.137,0.002-0.205,0.002C301.741,231.669,302.311,231.288,302.882,230.906z"/>
	</g>
</g>
</svg>
